<svg width="160" height="160" viewBox="0 0 160 160" fill="none" xmlns="http://www.w3.org/2000/svg">
<rect width="160" height="160" rx="16" fill="white"/>
<path d="M100.539 92.4277C99.8038 92.4278 99.0852 92.21 98.4739 91.8017C97.8626 91.3934 97.3861 90.813 97.1047 90.1339C96.8232 89.4548 96.7495 88.7075 96.8928 87.9865C97.036 87.2655 97.3899 86.6032 97.9096 86.0833C98.4293 85.5635 99.0915 85.2093 99.8124 85.0658C100.533 84.9223 101.281 84.9957 101.96 85.2769C102.639 85.5581 103.22 86.0344 103.628 86.6455C104.037 87.2566 104.255 87.9752 104.255 88.7103C104.254 89.6956 103.862 90.6403 103.165 91.3372C102.469 92.034 101.524 92.4262 100.539 92.4277ZM59.4611 92.4277C58.726 92.4278 58.0074 92.21 57.3961 91.8017C56.7848 91.3934 56.3083 90.813 56.0269 90.1339C55.7455 89.4548 55.6717 88.7076 55.815 87.9866C55.9583 87.2656 56.3121 86.6032 56.8318 86.0834C57.3515 85.5635 58.0137 85.2094 58.7346 85.0658C59.4556 84.9223 60.2029 84.9957 60.8821 85.2769C61.5613 85.5581 62.1418 86.0344 62.5504 86.6455C62.9589 87.2566 63.177 87.9752 63.1771 88.7103C63.1762 89.6956 62.7844 90.6404 62.0878 91.3373C61.3912 92.0342 60.4465 92.4264 59.4611 92.4277ZM101.872 70.0413L109.299 57.1774C109.401 57.0017 109.467 56.8077 109.493 56.6064C109.52 56.405 109.507 56.2005 109.455 56.0042C109.402 55.808 109.312 55.6241 109.188 55.4629C109.065 55.3017 108.911 55.1664 108.735 55.0647C108.559 54.9631 108.365 54.8971 108.164 54.8705C107.962 54.844 107.758 54.8573 107.562 54.9098C107.365 54.9624 107.182 55.053 107.02 55.1767C106.859 55.3003 106.724 55.4545 106.623 55.6304L99.1018 68.6567C93.3506 66.0318 86.8913 64.5702 79.9993 64.5702C73.1072 64.5702 66.6487 66.0339 60.8975 68.6567L53.3773 55.6304C53.2759 55.4544 53.1409 55.3 52.9799 55.1763C52.8189 55.0525 52.6351 54.9616 52.439 54.9089C52.2429 54.8562 52.0383 54.8427 51.8369 54.8691C51.6356 54.8955 51.4414 54.9614 51.2655 55.0629C51.0896 55.1644 50.9355 55.2996 50.8119 55.4607C50.6882 55.6219 50.5976 55.8058 50.5452 56.002C50.4927 56.1982 50.4794 56.4028 50.5061 56.6041C50.5327 56.8055 50.5988 56.9996 50.7006 57.1753L58.1284 70.0413C45.3745 76.9782 36.651 89.8896 35.375 105.144H124.625C123.348 89.8896 114.625 76.9782 101.872 70.0413Z" fill="#3DDC84"/>
</svg>
