<svg width="160" height="160" viewBox="0 0 160 160" fill="none" xmlns="http://www.w3.org/2000/svg">
<rect width="160" height="160" rx="16" fill="white"/>
<path d="M79.8813 40.6416L42.8457 53.6754L48.6976 102.198L79.9207 119.359L111.304 101.967L117.154 53.4447L79.8813 40.6416Z" fill="#B3B3B3"/>
<path d="M113.46 56.2487L79.7949 44.7681V115.259L108.008 99.6443L113.46 56.2487Z" fill="#A6120D"/>
<path d="M47 56.4558L52.0162 99.8521L79.7938 115.259V44.7671L47 56.4558Z" fill="#DD1B16"/>
<path d="M89.0621 82.2934L79.7952 86.6271H70.0277L65.4359 98.1109L56.8965 98.2696L79.7952 47.3271L89.0621 82.2934ZM88.1659 80.1115L79.8565 63.6609L73.0402 79.8284H79.7946L88.1659 80.1115Z" fill="#F2F2F2"/>
<path d="M79.7949 47.3271L79.8562 63.6609L87.5905 79.8409H79.8118L79.7949 86.6165L90.5505 86.6271L95.5768 98.2709L103.748 98.4221L79.7949 47.3271Z" fill="#B3B3B3"/>
</svg>
