<svg width="160" height="160" viewBox="0 0 160 160" fill="none" xmlns="http://www.w3.org/2000/svg">
<rect width="160" height="160" rx="16" fill="white"/>
<g clip-path="url(#clip0_205_6293)">
<path d="M108.973 96.2958C112.18 95.9053 119.251 95.0648 120.51 96.6862C121.768 98.2779 119.101 104.975 117.903 107.947C117.543 108.849 118.322 109.209 119.131 108.518C124.405 104.074 125.783 94.794 124.705 93.4428C123.625 92.122 114.367 90.9803 108.733 94.9446C107.864 95.5749 108.014 96.416 108.973 96.2958Z" fill="#FF9900"/>
<path d="M79.9105 112.542C92.226 112.542 106.548 108.668 116.407 101.371C118.025 100.169 116.616 98.3379 114.968 99.0885C103.912 103.773 91.8962 106.056 80.9593 106.056C64.7489 106.056 49.0777 101.581 36.3736 94.1939C35.2641 93.5332 34.4255 94.6743 35.354 95.5153C47.1004 106.146 62.6514 112.542 79.9105 112.542Z" fill="#FF9900"/>
<path d="M60.344 78.1577C60.344 79.269 60.4636 80.1695 60.6731 80.8303C60.9395 81.5734 61.2602 82.296 61.6326 82.9921C61.782 83.2326 61.8421 83.4731 61.8421 83.6832C61.8421 83.9838 61.6624 84.2844 61.2725 84.5844L59.3851 85.8457C59.1155 86.0254 58.8453 86.1159 58.606 86.1159C58.306 86.1159 58.0066 85.9653 57.7072 85.6951C57.3033 85.2602 56.9419 84.7876 56.6281 84.2838C56.2931 83.7067 55.9831 83.1155 55.699 82.5118C53.3622 85.2749 50.4255 86.6564 46.89 86.6564C44.3728 86.6564 42.3658 85.9356 40.8974 84.4945C39.4291 83.0529 38.6797 81.1302 38.6797 78.7285C38.6797 76.1755 39.5784 74.1035 41.4063 72.5422C43.2342 70.9803 45.6615 70.2 48.7482 70.2C49.7666 70.2 50.8153 70.2899 51.9242 70.4399C53.0325 70.5905 54.1711 70.8304 55.3699 71.1006V68.9083C55.3699 66.6262 54.8901 65.0346 53.961 64.1036C53.0027 63.1727 51.3844 62.7227 49.0773 62.7227C48.0286 62.7227 46.9501 62.8423 45.8412 63.1126C44.7396 63.3757 43.6581 63.7171 42.6051 64.134C42.2644 64.2868 41.914 64.4173 41.5563 64.5245C41.3468 64.584 41.1968 64.6143 41.0766 64.6143C40.6576 64.6143 40.4474 64.3144 40.4474 63.6834V62.212C40.4474 61.7316 40.5082 61.3709 40.6576 61.1614C40.807 60.9507 41.0766 60.7406 41.4962 60.5299C42.545 59.9894 43.8038 59.5394 45.2716 59.1787C46.74 58.7888 48.2988 58.6079 49.9463 58.6079C53.5122 58.6079 56.1186 59.4192 57.7965 61.0406C59.4446 62.662 60.2839 65.1251 60.2839 68.428V78.1577H60.344ZM48.1786 82.7225C49.1672 82.7225 50.1862 82.5421 51.2647 82.182C52.3432 81.8213 53.3021 81.1606 54.111 80.26C54.5907 79.6892 54.9502 79.0588 55.13 78.338C55.3097 77.6172 55.4294 76.7464 55.4294 75.7255V74.4643C54.5209 74.2428 53.6006 74.0725 52.673 73.9541C51.7389 73.835 50.7982 73.7746 49.8565 73.7732C47.8488 73.7732 46.3805 74.1637 45.3918 74.9744C44.4032 75.7857 43.9235 76.9267 43.9235 78.4279C43.9235 79.8392 44.283 80.8904 45.0323 81.6112C45.7513 82.3618 46.8001 82.7225 48.178 82.7225H48.1786ZM72.2392 85.9653C71.6999 85.9653 71.3404 85.8754 71.1006 85.6653C70.8613 85.485 70.6512 85.0641 70.4714 84.4939L63.4301 61.281C63.2504 60.6799 63.1605 60.29 63.1605 60.0799C63.1605 59.5995 63.3998 59.3293 63.8795 59.3293H66.8157C67.3853 59.3293 67.7752 59.4192 67.9847 59.6293C68.2245 59.8096 68.4037 60.2305 68.584 60.8007L73.6183 80.6803L78.2924 60.8007C78.4418 60.1995 78.6216 59.8096 78.8615 59.6293C79.1013 59.4489 79.5203 59.3293 80.0602 59.3293H82.4571C83.0267 59.3293 83.416 59.4192 83.6558 59.6293C83.8957 59.8096 84.1052 60.2305 84.2249 60.8007L88.9591 80.9207L94.1434 60.8007C94.3225 60.1995 94.532 59.8096 94.7421 59.6293C94.982 59.4489 95.3713 59.3293 95.9111 59.3293H98.6973C99.177 59.3293 99.4467 59.5692 99.4467 60.0799C99.4467 60.2299 99.4169 60.3799 99.3865 60.5602C99.3397 60.8163 99.2696 61.0675 99.177 61.3108L91.956 84.5249C91.7756 85.1255 91.5661 85.5153 91.3263 85.6957C91.087 85.8761 90.6971 85.9963 90.1876 85.9963H87.611C87.0414 85.9963 86.6515 85.9058 86.4122 85.6957C86.173 85.4856 85.9629 85.0951 85.8432 84.4945L81.1988 65.1257L76.5842 84.4648C76.4342 85.0653 76.2544 85.4558 76.0146 85.6659C75.7753 85.8761 75.3557 85.9659 74.8164 85.9659L72.2392 85.9653ZM110.743 86.7766C109.185 86.7766 107.627 86.5963 106.128 86.2362C104.63 85.8754 103.462 85.485 102.683 85.0344C102.203 84.7641 101.874 84.4635 101.754 84.1939C101.637 83.9287 101.576 83.6425 101.574 83.3528V81.8213C101.574 81.191 101.814 80.8904 102.263 80.8904C102.443 80.8904 102.623 80.9207 102.802 80.9802C102.982 81.041 103.252 81.1606 103.552 81.2808C104.61 81.7472 105.715 82.0994 106.848 82.3314C108.046 82.5719 109.215 82.6921 110.413 82.6921C112.301 82.6921 113.77 82.3618 114.788 81.7011C115.807 81.0404 116.346 80.0797 116.346 78.8481C116.346 78.0077 116.077 77.3172 115.537 76.7464C114.998 76.1755 113.979 75.6654 112.511 75.1851L108.166 73.8333C105.979 73.1428 104.361 72.122 103.372 70.7702C102.383 69.4488 101.874 67.9774 101.874 66.4161C101.874 65.1548 102.144 64.0435 102.683 63.0828C103.222 62.1221 103.941 61.2811 104.84 60.6203C105.739 59.9299 106.758 59.4192 107.956 59.0591C109.155 58.6983 110.413 58.5483 111.732 58.5483C112.391 58.5483 113.08 58.5787 113.739 58.6686C114.429 58.7585 115.058 58.8787 115.687 58.9989C116.286 59.1489 116.856 59.2989 117.395 59.4787C117.934 59.6596 118.354 59.8394 118.653 60.0198C119.073 60.2602 119.373 60.5001 119.553 60.7703C119.732 61.0108 119.822 61.3412 119.822 61.7614V63.1733C119.822 63.8043 119.582 64.1346 119.133 64.1346C118.893 64.1346 118.504 64.0144 117.994 63.7739C116.286 62.9935 114.368 62.6031 112.241 62.6031C110.534 62.6031 109.185 62.8733 108.256 63.4435C107.327 64.0144 106.848 64.8852 106.848 66.1167C106.848 66.9572 107.147 67.6774 107.747 68.2482C108.346 68.8191 109.454 69.3899 111.042 69.9L115.298 71.2518C117.455 71.9423 119.013 72.9036 119.942 74.1345C120.871 75.3654 121.32 76.7767 121.32 78.3386C121.32 79.6297 121.051 80.8011 120.541 81.8219C120.002 82.8427 119.283 83.7439 118.354 84.4648C117.425 85.2153 116.317 85.7558 115.028 86.1463C113.68 86.5665 112.271 86.7766 110.743 86.7766Z" fill="#252F3E"/>
</g>
<defs>
<clipPath id="clip0_205_6293">
<rect width="91.0903" height="91.0903" fill="white" transform="translate(34.4551 40)"/>
</clipPath>
</defs>
</svg>
