<svg width="160" height="160" viewBox="0 0 160 160" fill="none" xmlns="http://www.w3.org/2000/svg">
<rect width="160" height="160" rx="16" fill="white"/>
<path d="M112.125 59.1875L81.9375 41.8125C81.4375 41.5 80.75 41.375 80 41.375C79.25 41.375 78.5625 41.5625 78.0625 41.8125L48.0625 59.25C47 59.875 46.25 61.4375 46.25 62.625V97.4375C46.25 98.125 46.375 98.9375 46.875 99.625L113.625 60.875C113.25 60.125 112.688 59.5625 112.125 59.1875Z" fill="#9B4F96"/>
<path d="M46.6875 99.5625C47 100.063 47.4375 100.5 47.875 100.75L78 118.188C78.5 118.5 79.1875 118.625 79.9375 118.625C80.6875 118.625 81.375 118.438 81.875 118.188L111.875 100.75C112.938 100.125 113.688 98.5625 113.688 97.375V62.5625C113.688 62 113.625 61.375 113.312 60.8125L46.6875 99.5625Z" fill="#68217A"/>
<path d="M93.3125 87.5625C90.6875 92.1875 85.6875 95.3125 80 95.3125C71.5625 95.3125 64.6875 88.4375 64.6875 80C64.6875 71.5625 71.5625 64.6875 80 64.6875C85.6875 64.6875 90.6875 67.8125 93.3125 72.5L101.438 67.8125C97.1875 60.375 89.1875 55.3125 80 55.3125C66.375 55.3125 55.3125 66.375 55.3125 80C55.3125 93.625 66.375 104.688 80 104.688C89.125 104.688 97.125 99.6875 101.375 92.3125L93.3125 87.5625ZM100.625 81.375L101.188 78.6875H98.5625V75.75H101.75L102.5 71.875H105.562L104.812 75.6875H107.188L107.938 71.875H110.938L110.188 75.6875H111.688V78.625H109.625L109.062 81.3125H111.688V84.25H108.5L107.75 88H104.688L105.438 84.25H103.062L102.312 88H99.3125L100.062 84.25H98.5625V81.3125H100.625V81.375ZM103.625 81.375H106L106.562 78.6875H104.188L103.625 81.375Z" fill="white"/>
</svg>
