<svg width="160" height="160" viewBox="0 0 160 160" fill="none" xmlns="http://www.w3.org/2000/svg">
<rect width="160" height="160" rx="16" fill="white"/>
<path d="M62 61.8125L56.8125 56.625V93.9375L56.875 95.6875C56.875 96.5 57 97.4375 57.3125 98.375L98.3125 112.812L108.5 108.313L62 61.8125Z" fill="#00C4B3"/>
<path d="M108.5 108.313L98.3125 112.812L57.4375 98.375C58.25 101.375 59.9375 104.687 61.8125 106.625L75.125 119.875L104.875 119.938L108.5 108.313Z" fill="#22D3C5"/>
<path d="M41.0626 80.6875C39.7501 82.0625 40.4376 85 42.5001 87.1875L51.6876 96.4375L57.4375 98.5C57.25 97.5625 57.0001 96.625 57.0001 95.8125L56.9376 94.0625L56.8125 56.6875M108.5 108.312L113 98.0625L98.6251 57.0625C97.6876 56.875 96.75 56.6875 95.9375 56.625L94.125 56.5625L56.875 56.625" fill="#0075C9"/>
<path d="M98.5 57.0625C98.625 57.0625 98.625 57.0625 98.5 57.0625C98.625 57.0625 98.625 57.0625 98.5 57.0625ZM108.5 108.312L119.562 104.688V74.25L106.813 61.4375C104.938 59.5625 101.625 57.8125 98.5625 57.0625L113 98.0625" fill="#00A8E1"/>
<path d="M96.5625 51.3748L87.3125 42.1873C85.1875 40.0623 82.3125 39.4373 80.8125 40.7498L56.8125 56.6248H94L95.8125 56.6873C96.625 56.6873 97.5625 56.8123 98.5 57.1248L96.5625 51.3748Z" fill="#00C4B3"/>
</svg>
