<svg width="160" height="160" viewBox="0 0 160 160" fill="none" xmlns="http://www.w3.org/2000/svg">
<rect width="160" height="160" rx="16" fill="white"/>
<rect width="80" height="80" transform="translate(40 40)" fill="#512BD4"/>
<path d="M53.9807 89.2328C53.9786 89.8191 53.7311 90.3466 53.3355 90.7199H53.3335C52.9277 91.1013 52.3799 91.3346 51.7774 91.3346C51.1749 91.3346 50.6251 91.0993 50.2173 90.7179L50.2193 90.7199C49.8237 90.3466 49.5762 89.8191 49.5762 89.2348C49.5762 88.6506 49.8237 88.121 50.2213 87.7498C50.6271 87.3684 51.1769 87.1351 51.7794 87.1351C52.382 87.1351 52.9297 87.3684 53.3375 87.7518L53.3355 87.7498C53.7311 88.1231 53.9786 88.6506 53.9807 89.2369V89.2328ZM76.0457 90.9897H72.0956L61.6961 74.581C61.4567 74.2117 61.2356 73.7857 61.0591 73.3373L61.0408 73.2886H60.9495C61.0327 74.0291 61.0794 74.8853 61.0794 75.7536C61.0794 75.9646 61.0773 76.1756 61.0712 76.3866V76.3561V90.9897H57.5797V68.6671H61.7854L71.838 84.6904C72.262 85.3518 72.5359 85.8103 72.6576 86.0598H72.7185C72.617 85.301 72.5602 84.4246 72.5602 83.534C72.5602 83.3656 72.5623 83.1992 72.5663 83.0308V83.0552V68.665H76.0457V90.9897ZM93.0509 90.9897H80.8275V68.6671H92.566V71.8117H84.4408V78.1354H91.927V81.2638H84.4408V87.8654H93.0509V90.9897ZM110.423 71.8117H104.167V90.9918H100.553V71.8117H94.3108V68.6671H110.421L110.423 71.8117Z" fill="white"/>
</svg>
