<svg width="136" height="136" viewBox="0 0 136 136" fill="none" xmlns="http://www.w3.org/2000/svg">
<rect x="0.28125" width="135.719" height="135.719" rx="35.5564" transform="rotate(0.118781 0.28125 0)" fill="white"/>
<g clip-path="url(#clip0_205_6176)">
<path d="M71.9332 48.3522L74.6872 47.221C76.9237 46.3338 79.8145 45.4281 83.2265 46.0011C90.217 47.1766 95.0374 50.951 97.9097 55.9563C99.0187 57.8859 98.1242 60.4292 96.054 61.2388C94.2806 61.9326 92.7646 63.1571 91.7133 64.7449C90.662 66.3327 90.1267 68.2065 90.1805 70.1101C90.2343 72.0136 90.8746 73.8541 92.0139 75.3801C93.1532 76.906 94.7359 78.0429 96.5457 78.6354C98.4606 79.2638 99.54 81.3894 98.9115 83.3043C97.2776 88.2653 94.9265 92.8454 92.1429 96.5421C89.3926 100.194 86.036 103.226 82.2987 104.708C79.8589 105.669 77.2416 105.311 74.7389 104.69L73.2529 104.294L71.046 103.655C70.0442 103.363 69.0128 103.111 67.9999 103.111C66.9833 103.111 65.9556 103.363 64.9538 103.655L62.7469 104.294L61.2608 104.69C58.7582 105.311 56.1372 105.673 53.7011 104.708C48.9953 102.845 44.8439 98.4977 41.7054 93.3704C38.3077 87.7241 36.0659 81.4589 35.1105 74.9387C34.2714 69.1941 34.7261 62.7434 37.384 57.2871C40.1195 51.6644 45.1322 47.2875 52.7733 46.0011C55.8785 45.4799 58.5475 46.1785 60.6842 46.9807L61.9078 47.4613L64.0666 48.3522C65.5453 48.9326 66.7098 49.2727 67.9999 49.2727C69.2863 49.2727 70.4545 48.9326 71.9332 48.3522ZM67.1423 33.8723C70.7502 30.2606 76.2916 29.9501 77.5965 31.2587C78.9051 32.5637 78.5946 38.105 74.9829 41.713C71.375 45.3209 65.8336 45.6314 64.5287 44.3265C63.2201 43.0216 63.5306 37.4803 67.1423 33.8723Z" fill="url(#paint0_linear_205_6176)"/>
</g>
<defs>
<linearGradient id="paint0_linear_205_6176" x1="50.0711" y1="41.922" x2="131.668" y2="59.1714" gradientUnits="userSpaceOnUse">
<stop stop-color="#A6A6A6"/>
<stop offset="1" stop-color="#FCFCFC"/>
</linearGradient>
<clipPath id="clip0_205_6176">
<rect width="88.7204" height="88.7204" fill="white" transform="translate(23.6396 23.6399)"/>
</clipPath>
</defs>
</svg>
