<svg width="136" height="136" viewBox="0 0 136 136" fill="none" xmlns="http://www.w3.org/2000/svg">
<rect x="0.28125" width="135.719" height="135.719" rx="35.5564" transform="rotate(0.118781 0.28125 0)" fill="white"/>
<g clip-path="url(#clip0_205_6170)">
<path fill-rule="evenodd" clip-rule="evenodd" d="M91.8325 38.8185C92.7087 39.2571 93.3749 40.0256 93.6847 40.9551C93.9946 41.8846 93.9227 42.8992 93.4849 43.7757L89.145 52.4629C94.0324 55.8666 98.0239 60.4021 100.779 65.6823C103.534 70.9626 104.971 76.831 104.967 82.7868V86.4835C104.967 88.4443 104.188 90.3249 102.801 91.7114C101.415 93.0979 99.5343 93.8769 97.5735 93.8769H38.4266C36.4657 93.8769 34.5852 93.0979 33.1987 91.7114C31.8122 90.3249 31.0332 88.4443 31.0332 86.4835V82.7868C31.0286 76.8304 32.4651 70.9613 35.2202 65.6803C37.9753 60.3993 41.9671 55.8633 46.855 52.4592L42.5151 43.7757C42.2801 43.34 42.1351 42.8615 42.0885 42.3686C42.042 41.8757 42.0949 41.3785 42.2442 40.9065C42.3935 40.4345 42.6361 39.9972 42.9575 39.6207C43.279 39.2442 43.6728 38.9361 44.1156 38.7147C44.5584 38.4933 45.0412 38.3631 45.5353 38.3318C46.0294 38.3006 46.5247 38.3689 46.9919 38.5326C47.4591 38.6964 47.8886 38.9524 48.255 39.2854C48.6214 39.6183 48.9172 40.0215 49.1248 40.4709L53.3168 48.8513C57.9517 46.8452 62.9496 45.8134 68 45.82C73.216 45.82 78.1844 46.8994 82.6832 48.8513L86.8753 40.4709C87.3139 39.5947 88.0824 38.9286 89.0119 38.6187C89.9414 38.3089 90.956 38.3807 91.8325 38.8185ZM51.365 68.0001C49.8943 68.0001 48.4839 68.5843 47.444 69.6242C46.4041 70.6641 45.8199 72.0745 45.8199 73.5451C45.8199 75.0157 46.4041 76.4261 47.444 77.466C48.4839 78.5059 49.8943 79.0901 51.365 79.0901C52.8356 79.0901 54.246 78.5059 55.2859 77.466C56.3258 76.4261 56.91 75.0157 56.91 73.5451C56.91 72.0745 56.3258 70.6641 55.2859 69.6242C54.246 68.5843 52.8356 68.0001 51.365 68.0001ZM84.6351 68.0001C83.1645 68.0001 81.7541 68.5843 80.7142 69.6242C79.6743 70.6641 79.0901 72.0745 79.0901 73.5451C79.0901 75.0157 79.6743 76.4261 80.7142 77.466C81.7541 78.5059 83.1645 79.0901 84.6351 79.0901C86.1057 79.0901 87.5161 78.5059 88.556 77.466C89.5959 76.4261 90.1801 75.0157 90.1801 73.5451C90.1801 72.0745 89.5959 70.6641 88.556 69.6242C87.5161 68.5843 86.1057 68.0001 84.6351 68.0001Z" fill="url(#paint0_linear_205_6170)"/>
</g>
<defs>
<linearGradient id="paint0_linear_205_6170" x1="47.4763" y1="58.0644" x2="100.675" y2="120.231" gradientUnits="userSpaceOnUse">
<stop stop-color="#75EDA1"/>
<stop offset="1" stop-color="#349256"/>
</linearGradient>
<clipPath id="clip0_205_6170">
<rect width="88.7204" height="88.7204" fill="white" transform="translate(23.6396 23.6399)"/>
</clipPath>
</defs>
</svg>
