<svg width="160" height="160" viewBox="0 0 160 160" fill="none" xmlns="http://www.w3.org/2000/svg">
<rect width="160" height="160" rx="16" fill="white"/>
<path d="M79.9992 95.0502C88.3111 95.0502 95.0492 88.3121 95.0492 80.0002C95.0492 71.6883 88.3111 64.9502 79.9992 64.9502C71.6873 64.9502 64.9492 71.6883 64.9492 80.0002C64.9492 88.3121 71.6873 95.0502 79.9992 95.0502Z" fill="#4E8EF7"/>
<path d="M110.712 54.4627C110.714 53.4701 110.43 52.4982 109.893 51.6629C109.357 50.8276 108.592 50.1644 107.689 49.7524C106.786 49.3405 105.783 49.1972 104.801 49.3398C103.819 49.4824 102.899 49.9047 102.15 50.5564C94.6929 44.9453 85.3856 42.3703 76.1049 43.3506C66.8242 44.331 58.2603 48.7937 52.1402 55.8391C46.0201 62.8845 42.7989 71.9883 43.1262 81.3149C43.4535 90.6415 47.305 99.4972 53.904 106.096C60.503 112.695 69.3586 116.547 78.6852 116.874C88.0118 117.201 97.1157 113.98 104.161 107.86C111.206 101.74 115.669 93.176 116.65 83.8952C117.63 74.6145 115.055 65.3073 109.444 57.8502C110.262 56.9116 110.713 55.7081 110.712 54.4627ZM79.9999 115.625C74.3556 115.63 68.791 114.293 63.7645 111.726C58.7381 109.158 54.3936 105.433 51.0892 100.857C47.7848 96.2807 45.6149 90.9852 44.7584 85.4062C43.9019 79.8273 44.3832 74.1246 46.1628 68.7682C47.9424 63.4117 50.9692 58.5548 54.9939 54.5975C59.0186 50.6403 63.926 47.696 69.3118 46.0072C74.6975 44.3184 80.4075 43.9335 85.9712 44.8842C91.5349 45.8348 96.793 48.0939 101.312 51.4752C100.606 52.4708 100.275 53.6841 100.378 54.9004C100.481 56.1166 101.01 57.2573 101.873 58.1204C102.737 58.9835 103.877 59.5133 105.093 59.616C106.31 59.7187 107.523 59.3876 108.519 58.6814C112.473 63.9757 114.877 70.2654 115.462 76.8475C116.047 83.4296 114.789 90.0447 111.83 95.9531C108.871 101.862 104.327 106.831 98.7057 110.305C93.0846 113.779 86.608 115.621 79.9999 115.625Z" fill="#4E8EF7"/>
</svg>
