<svg width="160" height="160" viewBox="0 0 160 160" fill="none" xmlns="http://www.w3.org/2000/svg">
<rect width="160" height="160" rx="16" fill="white"/>
<path d="M70.9119 83.038C70.9119 83.038 68.2981 84.559 72.7752 85.0732C78.1987 85.6924 80.9709 85.6033 86.9467 84.4738C86.9467 84.4738 88.5219 85.4584 90.7154 86.3116C77.3152 92.0527 60.3874 85.9789 70.9119 83.038ZM69.2731 75.5443C69.2731 75.5443 66.3409 77.7164 70.8212 78.1796C76.6156 78.7774 81.1898 78.8267 89.1108 77.3017C89.1108 77.3017 90.2037 78.4128 91.9253 79.0185C75.7265 83.7575 57.6836 79.3918 69.2731 75.5443Z" fill="#0074BD"/>
<path d="M83.0773 62.8325C86.3812 66.6355 82.2114 70.0548 82.2114 70.0548C82.2114 70.0548 90.5949 65.7273 86.745 60.3062C83.1482 55.2529 80.3919 52.7433 95.3179 44.0868C95.3187 44.0868 71.8874 49.9369 83.0773 62.8325Z" fill="#EA2D2E"/>
<path d="M100.799 88.581C100.799 88.581 102.735 90.1768 98.6677 91.4105C90.9345 93.7529 66.4772 94.4597 59.6839 91.5036C57.2436 90.441 61.8226 88.967 63.2624 88.6574C64.7644 88.3318 65.6224 88.3915 65.6224 88.3915C62.9067 86.4789 48.0681 92.1475 58.0857 93.7736C85.4052 98.2014 107.885 91.779 100.799 88.581ZM72.1697 67.7802C72.1697 67.7802 59.7301 70.7354 67.765 71.8099C71.1588 72.2636 77.9195 72.1594 84.2216 71.6309C89.3705 71.1987 94.5377 70.2746 94.5377 70.2746C94.5377 70.2746 92.7237 71.053 91.4097 71.9492C78.7751 75.2722 54.3727 73.7242 61.3984 70.3271C67.3384 67.453 72.1697 67.7802 72.1697 67.7802ZM94.4859 80.2524C107.328 73.5809 101.39 67.1689 97.2454 68.0325C96.2322 68.2442 95.7769 68.4272 95.7769 68.4272C95.7769 68.4272 96.155 67.8351 96.8737 67.5812C105.073 64.6999 111.378 76.0825 94.2296 80.5906C94.2296 80.5906 94.4262 80.4123 94.4859 80.2524Z" fill="#0074BD"/>
<path d="M86.7441 30.1055C86.7441 30.1055 93.8557 37.2203 79.9978 48.1587C68.8851 56.9354 77.4636 61.9386 79.993 67.6574C73.5062 61.8041 68.7482 56.6513 71.9398 51.8566C76.6271 44.819 89.6126 41.4053 86.7441 30.1055Z" fill="#EA2D2E"/>
<path d="M73.4323 98.3373C85.7564 99.1253 104.688 97.8988 105.136 92.067C105.136 92.067 104.275 94.2773 94.9486 96.0315C84.428 98.0118 71.4504 97.7818 63.7554 96.5115C63.7554 96.5115 65.3313 97.8168 73.4323 98.3373Z" fill="#0074BD"/>
<path d="M104.568 108.798H104.192V108.587H105.203V108.798H104.829V109.846H104.567L104.568 108.798ZM106.586 108.85H106.581L106.208 109.846H106.036L105.666 108.85H105.662V109.846H105.414V108.587H105.778L106.121 109.478L106.465 108.587H106.826V109.846H106.586V108.85ZM71.4135 120.622C70.2515 121.63 69.0225 122.196 67.9186 122.196C66.3474 122.196 65.495 121.252 65.495 119.741C65.495 118.105 66.4071 116.907 70.062 116.907H71.4127V120.622H71.4135ZM74.6219 124.242V113.037C74.6219 110.173 72.9879 108.283 69.0528 108.283C66.7557 108.283 64.742 108.852 63.1048 109.574L63.576 111.559C64.8654 111.085 66.5329 110.646 68.1693 110.646C70.4377 110.646 71.4127 111.559 71.4127 113.448V114.864H70.2793C64.7707 114.864 62.285 117.001 62.285 120.215C62.285 122.984 63.923 124.558 67.0073 124.558C68.9891 124.558 70.4703 123.74 71.8529 122.542L72.1044 124.243H74.6219V124.242ZM85.3287 124.242H81.3276L76.5114 108.571H80.0064L82.9959 118.201L83.6605 121.094C85.1696 116.909 86.2393 112.66 86.7742 108.572H90.1736C89.2638 113.73 87.6242 119.395 85.3287 124.242ZM100.681 120.622C99.5146 121.63 98.2849 122.196 97.1849 122.196C95.6121 122.196 94.7605 121.252 94.7605 119.741C94.7605 118.105 95.675 116.907 99.326 116.907H100.68V120.622H100.681ZM103.891 124.242V113.037C103.891 110.173 102.252 108.283 98.3199 108.283C96.0205 108.283 94.0076 108.852 92.3703 109.574L92.8423 111.559C94.1317 111.085 95.8016 110.646 97.438 110.646C99.7032 110.646 100.681 111.559 100.681 113.448V114.864H99.5472C94.037 114.864 91.5521 117.001 91.5521 120.215C91.5521 122.984 93.1885 124.558 96.272 124.558C98.2546 124.558 99.7335 123.74 101.12 122.542L101.373 124.243H103.891V124.242ZM58.767 126.905C57.8541 128.241 56.3752 129.299 54.7579 129.895L53.1748 128.029C54.4061 127.397 55.4607 126.377 55.9518 125.427C56.3752 124.581 56.5511 123.493 56.5511 120.889V102.995H59.9609V120.643C59.9609 124.126 59.6839 125.534 58.767 126.905Z" fill="#EA2D2E"/>
</svg>
