<svg width="160" height="160" viewBox="0 0 160 160" fill="none" xmlns="http://www.w3.org/2000/svg">
<rect width="160" height="160" rx="16" fill="white"/>
<path fill-rule="evenodd" clip-rule="evenodd" d="M97.3906 107.021C97.517 106.778 97.6381 106.563 97.7413 106.341C97.8063 106.199 97.9065 106.171 98.0479 106.175C98.895 106.199 99.7422 106.225 100.59 106.233C101.31 106.24 102.032 106.227 102.752 106.219C103.564 106.209 104.376 106.166 105.188 106.19C106.268 106.221 107.321 106.433 108.298 106.913C109.465 107.488 110.348 108.364 110.95 109.518C111.329 110.249 111.565 111.046 111.646 111.865C111.775 113.068 111.69 114.242 111.309 115.392C110.837 116.817 109.939 117.908 108.693 118.726C107.734 119.354 106.682 119.726 105.554 119.938C104.361 120.163 103.164 120.091 101.967 120.095C100.654 120.1 99.3414 120.071 98.0284 120.056C97.7989 120.054 97.766 120.011 97.8265 119.792L97.8826 119.59C98.0105 119.188 98.0793 119.17 98.4875 119.102C98.7769 119.057 99.0536 118.952 99.3003 118.794C99.4378 118.702 99.4947 118.465 99.5485 118.281C99.5949 118.121 99.5971 117.946 99.5986 117.777C99.6173 115.216 99.6367 112.656 99.6472 110.096C99.6501 109.449 99.6339 108.802 99.5986 108.155C99.5732 107.703 99.3317 107.393 98.7933 107.286C98.3746 107.203 97.9529 107.139 97.5319 107.065L97.3906 107.021ZM109.411 113.222C109.354 112.712 109.326 112.197 109.235 111.695C109.017 110.489 108.489 109.438 107.562 108.615C106.062 107.285 104.258 107.08 102.366 107.239C101.935 107.274 101.842 107.422 101.836 107.864C101.825 108.493 101.815 109.121 101.814 109.749C101.811 111.741 101.811 113.732 101.814 115.724C101.815 116.291 101.821 116.858 101.837 117.423C101.855 118.002 102.065 118.492 102.632 118.716C103.526 119.07 104.465 119.111 105.403 118.967C106.901 118.738 107.948 117.865 108.651 116.557C109.207 115.519 109.364 114.387 109.411 113.222ZM113.051 120.004C113.033 119.694 113.16 119.437 113.317 119.202C113.36 119.138 113.507 119.141 113.608 119.121L114.464 118.951C114.767 118.887 114.927 118.684 114.969 118.387C114.998 118.191 115.024 117.993 115.027 117.795C115.047 116.227 115.062 114.659 115.071 113.091C115.078 111.521 115.072 109.951 115.072 108.38L115.066 108.081C115.035 107.576 114.791 107.314 114.29 107.24L113.204 107.075C113.07 107.057 113.021 106.993 113.07 106.874C113.154 106.671 113.234 106.461 113.352 106.279C113.396 106.211 113.545 106.185 113.645 106.187C114.164 106.195 114.683 106.234 115.202 106.233L119.719 106.206C120.589 106.205 121.429 106.357 122.21 106.774C123.069 107.231 123.55 107.939 123.687 108.904C123.831 109.917 123.524 110.771 122.783 111.449C122.479 111.729 122.085 111.911 121.732 112.138L121.617 112.21C121.944 112.33 122.256 112.434 122.56 112.559C123.448 112.923 124.155 113.492 124.529 114.4C124.824 115.117 124.824 115.865 124.649 116.608C124.377 117.772 123.61 118.545 122.614 119.131C121.678 119.68 120.666 120 119.588 120.054C118.593 120.104 117.594 120.086 116.598 120.097L116.02 120.1C115.06 120.078 114.099 120.054 113.139 120.028L113.051 120.004ZM117.191 115.451H117.201C117.201 115.943 117.194 116.435 117.203 116.927C117.209 117.246 117.198 117.573 117.267 117.88C117.37 118.338 117.579 118.752 118.094 118.883C118.781 119.064 119.5 119.096 120.201 118.976C121.081 118.823 121.783 118.382 122.168 117.543C122.454 116.921 122.496 116.26 122.398 115.586C122.268 114.698 121.796 114.053 121.012 113.631C120.498 113.353 119.949 113.184 119.364 113.161C118.709 113.136 118.053 113.135 117.398 113.115C117.214 113.11 117.189 113.203 117.19 113.354C117.194 114.052 117.191 114.752 117.191 115.451ZM118.586 112.105C118.944 112.087 119.349 112.082 119.752 112.042C120.524 111.965 121.067 111.577 121.351 110.839C121.495 110.464 121.489 110.078 121.493 109.689C121.504 108.674 120.912 107.843 119.948 107.499C119.204 107.233 118.437 107.229 117.665 107.25C117.353 107.258 117.213 107.395 117.209 107.71L117.162 111.814C117.16 111.977 117.23 112.047 117.389 112.052L118.586 112.105Z" fill="#94795D"/>
<path fill-rule="evenodd" clip-rule="evenodd" d="M40.0286 119.215L39.974 119.921C39.4656 119.921 38.9968 119.917 38.528 119.923C37.6449 119.932 36.7619 119.946 35.8781 119.958L35.7929 119.964C35.6665 119.949 35.437 119.949 35.431 119.911C35.3936 119.701 35.4056 119.481 35.4153 119.263C35.416 119.238 35.502 119.207 35.5521 119.195L36.2393 119.042C36.6677 118.93 36.8187 118.746 36.8389 118.303C36.8621 117.804 36.8853 117.305 36.8875 116.806C36.8942 115.578 36.8868 114.352 36.892 113.124C36.8927 112.837 36.7933 112.623 36.5256 112.507C36.2075 112.366 35.8872 112.23 35.5648 112.099C35.4123 112.037 35.2141 112.004 35.2321 111.799C35.25 111.59 35.4422 111.536 35.6231 111.494C36.3723 111.323 37.1223 111.156 37.8692 110.974C38.11 110.915 38.3403 110.816 38.6282 110.715C38.6431 110.871 38.6708 111.019 38.6678 111.167L38.6237 111.871C38.6229 111.95 38.6641 112.056 38.7231 112.1C38.759 112.128 38.8794 112.078 38.9392 112.031C39.5777 111.545 40.2537 111.126 41.0246 110.881C42.2186 110.502 43.2437 110.854 43.9615 111.883C44.2143 112.246 44.215 112.246 44.5657 111.992C45.1676 111.555 45.7971 111.169 46.5015 110.915C48.0477 110.356 49.5334 111.065 50.071 112.623C50.2669 113.188 50.3417 113.772 50.3402 114.369L50.326 118.33C50.3252 118.657 50.4337 118.843 50.7447 118.945C51.0939 119.059 51.4558 119.137 51.8491 119.241L51.7578 119.922C51.3107 119.922 50.8995 119.919 50.4882 119.923C49.4833 119.932 48.4784 119.937 47.4742 119.96C47.2993 119.964 47.2537 119.921 47.2447 119.757C47.2155 119.233 47.2111 119.234 47.7045 119.116L47.8705 119.073C48.3528 118.942 48.5136 118.794 48.5173 118.305C48.5285 116.9 48.5577 115.492 48.4866 114.091C48.4126 112.638 47.2589 111.864 45.8502 112.236C45.3956 112.361 44.9674 112.567 44.5866 112.845C44.4558 112.938 44.4311 113.046 44.4416 113.21C44.4812 113.829 44.5059 114.449 44.5111 115.068C44.5201 116.153 44.5066 117.238 44.5111 118.324C44.5126 118.764 44.6629 118.932 45.0973 119.034L45.7426 119.182L45.8622 119.209C45.8712 119.416 45.8794 119.622 45.8697 119.828C45.8637 119.958 45.7635 119.969 45.6513 119.967C45.024 119.951 44.3959 119.93 43.7686 119.932C43.0052 119.933 42.2426 119.955 41.4799 119.968H41.3005C41.3005 119.749 41.29 119.54 41.3079 119.331C41.3117 119.281 41.3999 119.211 41.4605 119.195L42.2127 119.036C42.5319 118.957 42.6845 118.794 42.7024 118.469C42.7876 116.966 42.8489 115.462 42.7076 113.96C42.6732 113.664 42.5909 113.375 42.4639 113.104C42.0788 112.253 41.2122 111.898 40.2125 112.154C39.7378 112.275 39.3093 112.493 38.9041 112.767C38.8157 112.821 38.7431 112.898 38.6935 112.989C38.6439 113.08 38.6191 113.183 38.6214 113.287C38.6214 114.786 38.6267 116.285 38.6312 117.783L38.6394 118.361C38.6484 118.764 38.8196 118.977 39.2196 119.063C39.4768 119.122 39.737 119.161 40.0286 119.215Z" fill="#50382B"/>
<path fill-rule="evenodd" clip-rule="evenodd" d="M85.2331 110.869C85.349 111.433 85.3467 111.94 84.9325 112.324C84.5213 112.706 84.0009 112.577 83.4932 112.492C83.5403 112.76 83.5926 112.987 83.618 113.218C83.8027 114.929 83.0662 116.199 81.4789 116.925C80.8792 117.199 80.2429 117.301 79.5932 117.353C79.2701 117.378 78.9875 117.625 78.9569 117.891C78.9255 118.16 79.0944 118.436 79.4324 118.517C79.8309 118.612 80.2466 118.639 80.6556 118.686C81.5334 118.786 82.421 118.832 83.2883 118.989C84.5998 119.225 85.3318 120.37 85.1007 121.687C84.8951 122.86 84.2162 123.713 83.2696 124.367C81.6748 125.472 79.9251 125.795 78.0619 125.232C76.9964 124.909 76.2449 124.208 75.9855 123.074C75.8554 122.507 75.9937 121.993 76.4206 121.608C76.9283 121.152 77.4809 120.745 78.0125 120.315L78.1845 120.142L77.9871 120.004C77.445 119.746 77.0113 119.394 76.8431 118.783C76.7855 118.576 76.8453 118.439 77.0211 118.333C77.3201 118.153 77.6177 117.97 77.9131 117.784C78.0521 117.697 78.1897 117.607 78.3191 117.507C78.4955 117.372 78.4798 117.272 78.269 117.195C77.7785 117.014 77.3426 116.751 77.0046 116.347C76.4401 115.674 76.2801 114.871 76.3264 114.024C76.399 112.701 77.1175 111.829 78.2854 111.268C79.6739 110.602 81.0669 110.56 82.4823 111.167C83.0057 111.392 83.5575 111.439 84.119 111.401C84.5385 111.371 84.9048 111.212 85.2331 110.869ZM80.1165 120.351C79.0742 120.342 78.7475 120.47 78.1359 121.093C77.451 121.791 77.4547 122.76 78.1381 123.461C78.657 123.993 79.3045 124.242 80.0246 124.316C80.8657 124.403 81.6942 124.368 82.4584 123.947C83.2734 123.496 83.6786 122.659 83.4954 121.815C83.3436 121.119 82.8307 120.801 82.2064 120.618C81.4961 120.41 80.7618 120.37 80.1165 120.351ZM78.0693 113.69C78.1075 113.979 78.1232 114.273 78.1875 114.556C78.3542 115.29 78.6735 115.935 79.404 116.262C80.2616 116.647 81.357 116.482 81.7323 115.278C81.9888 114.477 81.9589 113.612 81.6478 112.83C81.516 112.473 81.2787 112.164 80.9674 111.945C80.2227 111.425 78.8791 111.356 78.3318 112.505C78.1538 112.878 78.0843 113.275 78.0693 113.69Z" fill="#4F382B"/>
<path fill-rule="evenodd" clip-rule="evenodd" d="M67.5502 110.684C67.5778 110.812 67.6332 110.957 67.6347 111.103C67.6369 111.38 67.607 111.658 67.5913 111.935V112.176L67.8261 111.997C68.4691 111.467 69.16 111.016 69.9645 110.773C71.4165 110.336 72.8671 111.131 73.3404 112.61C73.5198 113.172 73.5909 113.75 73.5976 114.338C73.6126 115.643 73.6215 116.949 73.635 118.254C73.6395 118.723 73.6933 118.807 74.1367 118.942C74.389 119.017 74.6464 119.074 74.9068 119.113C75.0496 119.136 75.111 119.192 75.1035 119.331L75.105 119.46C75.0997 120.001 75.0624 120.025 74.5382 120.024C73.2836 120.022 72.0297 120.029 70.775 120.04C70.4012 120.043 70.4004 120.054 70.363 119.684L70.3556 119.472C70.3787 119.154 70.3862 119.157 70.6995 119.11C70.9104 119.079 71.1197 119.03 71.3253 118.976C71.5369 118.922 71.6386 118.765 71.667 118.556C71.6812 118.45 71.6999 118.344 71.6992 118.238C71.6812 116.811 71.7044 115.383 71.6267 113.958C71.5638 112.806 70.6845 112.12 69.5278 112.198C68.9703 112.237 68.4343 112.429 67.9794 112.754C67.6706 112.97 67.6085 113.282 67.61 113.618C67.616 114.951 67.6287 116.285 67.6429 117.62C67.6459 117.912 67.6541 118.205 67.6818 118.495C67.7109 118.812 67.8223 118.94 68.1334 119.008C68.431 119.074 68.7345 119.112 69.0523 119.166L69.0792 119.411C69.0897 119.983 69.0299 120.025 68.4743 120.023C67.1771 120.018 65.8798 120.026 64.5833 120.04C64.3792 120.043 64.2924 119.979 64.2977 119.78L64.2947 119.695C64.261 119.18 64.276 119.16 64.7635 119.077L64.9938 119.03C65.5217 118.911 65.657 118.771 65.6645 118.235C65.6891 116.537 65.6981 114.839 65.7153 113.141C65.7176 112.898 65.6256 112.708 65.3983 112.607C65.0793 112.468 64.7585 112.332 64.436 112.201C64.258 112.127 64.0547 112.081 64.0479 111.835C64.0434 111.662 64.2289 111.508 64.4823 111.457C64.9915 111.353 65.5052 111.268 66.0084 111.141C66.5094 111.016 67.0014 110.849 67.5502 110.684Z" fill="#4F372B"/>
<path fill-rule="evenodd" clip-rule="evenodd" d="M95.6013 115.12C95.5774 116.706 95.1654 117.988 94.0439 118.95C92.6232 120.171 90.407 120.586 88.5954 119.673C87.8222 119.284 87.254 118.686 86.8839 117.911C86.3164 116.719 86.1743 115.465 86.4704 114.18C86.7635 112.91 87.5329 111.989 88.6843 111.393C89.8687 110.781 91.1159 110.542 92.4311 110.863C94.0947 111.269 95.2903 112.626 95.5281 114.353C95.5707 114.656 95.5871 114.962 95.6013 115.12ZM93.6745 115.979L93.6102 115.972C93.6102 115.822 93.6184 115.672 93.6087 115.523C93.5541 114.591 93.3448 113.704 92.8049 112.924C92.2928 112.185 91.5951 111.749 90.6874 111.686C89.6713 111.614 88.8174 112.182 88.5176 113.22C88.0675 114.778 88.22 116.297 89.0111 117.724C89.3558 118.346 89.8665 118.805 90.5506 119.047C91.8912 119.519 93.0801 118.908 93.4293 117.535C93.5579 117.028 93.5953 116.498 93.6745 115.979Z" fill="#4F382B"/>
<path fill-rule="evenodd" clip-rule="evenodd" d="M62.6666 115.242C62.6389 116.38 62.3705 117.432 61.6677 118.347C60.9147 119.326 59.8799 119.849 58.703 120.07C57.3115 120.33 56.0046 120.094 54.8867 119.16C54.3559 118.716 53.9932 118.147 53.754 117.499C53.3614 116.438 53.2635 115.35 53.505 114.241C53.7629 113.054 54.4329 112.147 55.4714 111.539C56.6723 110.837 57.968 110.523 59.352 110.839C61.1316 111.246 62.1589 112.405 62.5387 114.161C62.615 114.515 62.6255 114.882 62.6666 115.242ZM60.7181 115.993L60.6665 115.985V115.772C60.6373 114.728 60.4332 113.733 59.8104 112.866C59.349 112.222 58.7314 111.818 57.9396 111.705C56.6491 111.522 55.8057 112.287 55.526 113.327C55.1611 114.686 55.2755 116.028 55.8401 117.316C56.1922 118.119 56.7485 118.745 57.6031 119.049C58.9356 119.522 60.1423 118.895 60.4796 117.528C60.6037 117.028 60.6411 116.506 60.7181 115.993Z" fill="#4F372B"/>
<path fill-rule="evenodd" clip-rule="evenodd" d="M93.7278 57.2278C94.6452 59.8799 95.3047 62.5873 95.5223 65.3927C95.7914 68.874 95.6688 72.3314 94.9346 75.7551L94.8404 76.0288C94.6101 76.0295 94.3753 76.0004 94.1502 76.0355C92.2488 76.3346 90.3496 76.6441 88.4497 76.9522C86.4855 77.2707 84.5198 77.5765 82.5593 77.916C81.8647 78.0356 81.0048 77.8928 80.7245 78.8529L80.5899 78.8985L80.6848 73.1576L80.5884 59.3057L81.5036 59.1486C82.9997 58.9041 84.4959 58.6551 85.9943 58.4166C87.7813 58.1333 89.5698 57.8566 91.3583 57.58C92.1479 57.4588 92.9382 57.3459 93.7278 57.2278Z" fill="#439934"/>
<path fill-rule="evenodd" clip-rule="evenodd" d="M78.7012 95.635C77.7359 94.8051 76.737 94.0118 75.8121 93.1385C70.8339 88.4429 67.1918 82.9151 65.3981 76.2508C64.9038 74.4175 64.5748 72.5534 64.4687 70.6587C64.3939 69.3323 64.287 67.9947 64.3812 66.675C64.6302 63.166 65.1379 59.6907 66.1667 56.3103L66.2235 56.2318C66.3237 56.3649 66.4673 56.483 66.5181 56.6333C67.523 59.5912 68.5197 62.5521 69.5119 65.5153C72.6291 74.825 75.7425 84.1369 78.865 93.445C78.9263 93.6267 79.084 93.7755 79.1977 93.9392L78.7012 95.635Z" fill="#45A538"/>
<path fill-rule="evenodd" clip-rule="evenodd" d="M93.7281 57.2278C92.9378 57.3452 92.1475 57.4588 91.3587 57.58C89.5702 57.8566 87.7817 58.1333 85.9946 58.4166C84.497 58.6544 83.0008 58.9034 81.5039 59.1486L80.5887 59.3057L80.5813 58.709C80.5506 58.2185 80.4998 57.728 80.493 57.2375L80.3906 47.8508C80.3667 45.8926 80.3308 43.9344 80.2912 41.9769C80.271 40.7602 80.2358 39.5439 80.1857 38.3281C80.1558 37.6753 80.0504 37.0256 80.0085 36.3728C79.9839 35.9975 80.0168 35.6192 80.025 35.2423C80.4915 36.1463 80.9484 37.057 81.4277 37.9542C82.1851 39.3726 83.3926 40.4179 84.4805 41.5582C88.7769 46.0676 91.8267 51.3075 93.7281 57.2278Z" fill="#46A037"/>
<path fill-rule="evenodd" clip-rule="evenodd" d="M80.5904 78.8989L80.725 78.8533C81.0054 77.8932 81.8653 78.036 82.5599 77.9164C84.5204 77.5769 86.4861 77.2711 88.4503 76.9526C90.3502 76.6453 92.2494 76.3358 94.1508 76.0359C94.3758 76.0008 94.6106 76.0299 94.8409 76.0292C94.4858 77.2973 94.2061 78.5931 93.7553 79.826C93.2431 81.2242 92.624 82.5896 91.9668 83.9279C90.9822 85.9238 89.7642 87.7957 88.3381 89.5043C87.242 90.8218 86.0203 92.0413 84.7963 93.2443C84.1189 93.909 83.3218 94.4511 82.5786 95.0493L82.3857 94.9177L81.6926 94.3255L80.9755 92.7523C80.4856 90.9178 80.2182 89.031 80.1792 87.1326L80.1927 86.8126L80.2906 85.4263C80.3228 84.953 80.3661 84.4805 80.3863 84.0072C80.4581 82.3054 80.5224 80.6022 80.5904 78.8989Z" fill="#409433"/>
<path fill-rule="evenodd" clip-rule="evenodd" d="M80.5926 78.8989C80.5253 80.6021 80.461 82.3061 80.3885 84.0094C80.3683 84.4835 80.3257 84.956 80.2928 85.4286L79.8561 85.5938C78.8856 82.7368 77.9143 79.9098 76.9647 77.076C75.3938 72.3871 73.8423 67.6915 72.2736 63.0012C71.0069 59.2158 69.7313 55.4334 68.4469 51.654C68.3863 51.4776 68.2144 51.3385 68.0947 51.1822L70.8911 46.0403C70.9876 46.207 71.114 46.3633 71.1745 46.5427C72.468 50.371 73.7593 54.2 75.0394 58.0327C76.7053 63.0199 78.3599 68.0093 80.0243 72.9972C80.0909 73.1961 80.2 73.3801 80.3047 73.6036L80.6876 73.158L80.5926 78.8989Z" fill="#4FAA41"/>
<path fill-rule="evenodd" clip-rule="evenodd" d="M68.0924 51.1819C68.2128 51.3382 68.3848 51.4772 68.4446 51.6537C69.7291 55.433 71.0047 59.2154 72.2713 63.0008C73.84 67.6912 75.3915 72.3868 76.9624 77.0756C77.912 79.9094 78.8833 82.7357 79.8538 85.5934L80.2904 85.4282L80.1925 86.8144L80.1035 87.1337C79.9517 88.6508 79.8239 90.1709 79.6384 91.685C79.5457 92.4439 79.3476 93.1886 79.1973 93.9393C79.0844 93.7756 78.9259 93.6268 78.8646 93.4451C75.7414 84.1369 72.6287 74.825 69.5115 65.5154C68.5198 62.5526 67.5218 59.592 66.5177 56.6334C66.4669 56.4831 66.3233 56.365 66.2231 56.2319L68.0924 51.1819Z" fill="#4AA73C"/>
<path fill-rule="evenodd" clip-rule="evenodd" d="M80.6856 73.1577L80.3027 73.6033C80.1981 73.3798 80.0889 73.1958 80.0224 72.997C78.358 68.009 76.7033 63.0196 75.0374 58.0324C73.7558 54.2002 72.4676 50.3702 71.1725 46.5425C71.112 46.363 70.9856 46.2067 70.8892 46.04L74.3473 41.491C74.4565 41.636 74.612 41.7654 74.6681 41.9291C75.6281 44.7405 76.5792 47.5541 77.5258 50.3699C78.4096 53.0004 79.2799 55.6338 80.1741 58.2597C80.234 58.4354 80.4426 58.5595 80.5816 58.7091L80.5891 59.3058L80.6856 73.1577Z" fill="#57AE47"/>
<path fill-rule="evenodd" clip-rule="evenodd" d="M80.5815 58.7089C80.4417 58.5601 80.2338 58.436 80.174 58.2595C79.2805 55.6336 78.4094 53.0002 77.5257 50.3697C76.5798 47.5539 75.6272 44.7402 74.6679 41.9289C74.6119 41.7652 74.4563 41.6358 74.3472 41.4908C75.4717 40.3894 76.5611 39.2484 77.7313 38.1979C78.7713 37.2647 79.6073 36.2643 79.6461 34.7891L79.7284 34.4952L80.0245 35.2414C80.017 35.6183 79.9834 35.9966 80.008 36.372C80.0506 37.0247 80.1561 37.6745 80.1852 38.3272C80.2398 39.5422 80.266 40.7595 80.2907 41.976C80.3303 43.9335 80.3662 45.8917 80.3901 47.85L80.4925 57.2366C80.5 57.7279 80.5516 58.2184 80.5815 58.7089Z" fill="#60B24F"/>
<path fill-rule="evenodd" clip-rule="evenodd" d="M79.1974 93.9388C79.3477 93.1881 79.5458 92.4434 79.6386 91.6845C79.824 90.1711 79.9519 88.6503 80.1036 87.1332L80.1418 87.1272L80.1792 87.1339C80.2182 89.0323 80.4855 90.9192 80.9755 92.7537C80.8745 92.8868 80.7332 93.0042 80.6794 93.1537C80.2644 94.3246 79.8726 95.5052 79.4554 96.6754C79.3985 96.8354 79.2385 96.9603 79.1271 97.1001L78.7002 95.6346L79.1974 93.9388Z" fill="#A9AA88"/>
<path fill-rule="evenodd" clip-rule="evenodd" d="M79.1279 97.1006C79.2393 96.96 79.3993 96.8359 79.4562 96.6759C79.8734 95.5057 80.2652 94.3251 80.6802 93.1542C80.7333 93.0046 80.8753 92.8872 80.9763 92.7542L81.6933 94.3273C81.552 94.5277 81.3561 94.7094 81.2776 94.933L79.9048 98.9646C79.848 99.1268 79.6558 99.2405 79.5257 99.3773L79.1279 97.1006Z" fill="#B6B598"/>
<path fill-rule="evenodd" clip-rule="evenodd" d="M79.5254 99.3766C79.6547 99.2398 79.8477 99.1262 79.9045 98.9639L81.2773 94.9323C81.355 94.7087 81.5517 94.527 81.693 94.3267L82.3869 94.9181C82.0519 95.2493 81.8657 95.6321 81.9779 96.1159L81.767 96.806C81.6713 96.9242 81.5322 97.0274 81.4851 97.1627C81.0058 98.5355 80.549 99.9157 80.066 101.288C80.0047 101.461 79.8349 101.598 79.7161 101.752L79.5254 99.3766Z" fill="#C2C1A7"/>
<path fill-rule="evenodd" clip-rule="evenodd" d="M79.7166 101.751C79.8362 101.597 80.0059 101.46 80.0665 101.287C80.5495 99.9149 81.0071 98.5346 81.4856 97.1618C81.5327 97.0265 81.6718 96.9241 81.7675 96.8052L81.4767 99.9724C81.3989 100.062 81.2867 100.141 81.2494 100.245L80.2818 103.017C80.2138 103.206 80.0837 103.375 79.982 103.552C79.8915 103.434 79.73 103.32 79.7225 103.197C79.6941 102.717 79.7143 102.234 79.7166 101.751Z" fill="#CECDB7"/>
<path fill-rule="evenodd" clip-rule="evenodd" d="M79.9834 103.554C80.0851 103.376 80.2152 103.207 80.2832 103.018L81.2508 100.246C81.2881 100.141 81.401 100.063 81.4781 99.9736L81.4855 102.052L80.7894 103.837L79.9834 103.554Z" fill="#DBDAC7"/>
<path fill-rule="evenodd" clip-rule="evenodd" d="M80.7891 103.837L81.4852 102.052L81.6287 104.164L80.7891 103.837Z" fill="#EBE9DC"/>
<path fill-rule="evenodd" clip-rule="evenodd" d="M81.9782 96.1163C81.8668 95.6333 82.0522 95.2504 82.3872 94.9185L82.5801 95.05L81.9782 96.1163Z" fill="#CECDB7"/>
<path fill-rule="evenodd" clip-rule="evenodd" d="M80.18 87.1347L80.1426 87.128L80.1045 87.134L80.1935 86.8147L80.18 87.1347Z" fill="#4FAA41"/>
</svg>
