<svg width="160" height="160" viewBox="0 0 160 160" fill="none" xmlns="http://www.w3.org/2000/svg">
<rect width="160" height="160" rx="16" fill="white"/>
<path d="M29.4554 101.57H32.8044V88.344L37.9894 99.874C38.6008 101.27 39.4381 101.763 41.0808 101.763C42.7235 101.763 43.529 101.27 44.1404 99.874L49.3254 88.344V101.57H52.6744V88.366C52.6744 87.0779 52.1592 86.4542 51.0961 86.133C48.5517 85.339 46.8446 86.0262 46.0718 87.7439L40.9838 99.1232L36.0573 87.7431C35.3162 86.0262 33.5773 85.339 31.0329 86.1322C29.9698 86.4542 29.4546 87.0771 29.4546 88.3652V101.57H29.4554ZM55.4601 90.8036H58.8084V98.0902C58.7774 98.4856 58.9355 99.415 60.7698 99.4444C61.7057 99.459 67.9946 99.4444 68.0533 99.4444V90.7677H71.4096C71.4251 90.7677 71.4064 102.6 71.4064 102.649C71.4243 105.568 67.7859 106.201 66.1081 106.25H55.5327V103.997C55.5506 103.997 66.1007 103.999 66.1268 103.996C68.2832 103.768 68.028 102.697 68.0272 102.337V101.458H60.9092C57.5977 101.428 55.4879 99.9824 55.461 98.3193C55.4593 98.1669 55.5335 90.8769 55.4601 90.8036Z" fill="#00618A"/>
<path d="M73.9927 101.57H83.6224C84.7499 101.57 85.8455 101.334 86.7146 100.926C88.1633 100.261 88.8717 99.3596 88.8717 98.1775V95.7301C88.8717 94.764 88.0671 93.8615 86.4888 93.2615C85.6515 92.9387 84.6202 92.7683 83.6216 92.7683H79.5633C78.2108 92.7683 77.5667 92.3607 77.4061 91.459C77.3743 91.3514 77.3743 91.2658 77.3743 91.1582V89.6337C77.3743 89.5481 77.3743 89.4617 77.4061 89.3549C77.5667 88.6676 77.9213 88.4744 79.1132 88.3668L79.4353 88.3456H89.0006V86.1134H79.5967C78.2442 86.1134 77.5357 86.199 76.8917 86.3923C74.8952 87.0151 74.0245 88.0024 74.0245 89.7201V91.6734C74.0245 93.1767 75.7324 94.4648 78.598 94.7657C78.9208 94.786 79.242 94.8089 79.5641 94.8089H83.0427C83.1715 94.8089 83.3003 94.8089 83.3974 94.8292C84.4604 94.9148 84.9105 95.1089 85.2333 95.4945C85.316 95.5709 85.3817 95.6639 85.4259 95.7675C85.4702 95.871 85.4921 95.9827 85.4901 96.0953V98.0495C85.4901 98.2851 85.3295 98.5859 85.0075 98.8435C84.7181 99.1011 84.2346 99.2732 83.5906 99.3164L83.2359 99.3376H73.9927V101.57ZM109.767 97.6842C109.767 99.9808 111.474 101.269 114.919 101.527C115.241 101.549 115.563 101.57 115.885 101.57H124.613V99.3376H115.821C113.857 99.3376 113.116 98.8435 113.116 97.6622V86.1118H109.767V97.6842H109.767ZM91.0093 97.8V89.8391C91.0093 87.8173 92.4295 86.5904 95.2372 86.2031C95.5364 86.1602 95.8382 86.1387 96.1405 86.1387H102.499C102.821 86.1387 103.112 86.1599 103.434 86.2031C106.241 86.5904 107.662 87.8165 107.662 89.8391V97.8C107.662 99.4419 107.059 100.319 105.669 100.891L108.969 103.87H105.08L102.411 101.46L99.7235 101.63H96.1405C95.4749 101.626 94.8129 101.532 94.1725 101.35C92.0422 100.77 91.0093 99.6506 91.0093 97.8ZM94.6241 97.6068C94.6241 97.7144 94.6559 97.8228 94.6885 97.9516C94.8817 98.8769 95.7541 99.393 97.0764 99.393H100.119L97.3242 96.8698H101.214L103.651 99.071C104.101 98.8305 104.396 98.4652 104.499 97.9948C104.531 97.8872 104.531 97.7796 104.531 97.672V90.0348C104.531 89.9492 104.531 89.8408 104.499 89.7331C104.305 88.8722 103.434 88.3782 102.143 88.3782H97.0756C95.5918 88.3782 94.6233 89.0239 94.6233 90.0348V97.6068H94.6241Z" fill="#E48E00"/>
<path d="M127.559 82.4066C125.5 82.3503 123.928 82.5419 122.582 83.1085C122.2 83.2699 121.591 83.274 121.529 83.7526C121.739 83.9735 121.771 84.302 121.938 84.5727C122.26 85.092 122.802 85.7882 123.285 86.1526C123.813 86.5513 124.357 86.9785 124.925 87.3242C125.931 87.9389 127.057 88.2894 128.028 88.9041C128.599 89.2677 129.166 89.7242 129.725 90.1343C130.001 90.3357 130.185 90.6512 130.545 90.7775V90.7197C130.357 90.48 130.308 90.1506 130.135 89.8995L129.373 89.1381C128.629 88.15 127.685 87.2834 126.68 86.5627C125.879 85.988 124.087 85.211 123.753 84.2792L123.694 84.2213C124.262 84.1569 124.927 83.9515 125.451 83.8113C126.331 83.5748 127.118 83.636 128.027 83.4012L129.256 83.049V82.8158C128.797 82.3446 128.469 81.7202 127.968 81.2938C126.658 80.1777 125.226 79.0625 123.753 78.1314C122.936 77.6162 121.926 77.2811 121.06 76.8442C120.769 76.6966 120.257 76.6208 120.064 76.3754C119.608 75.7958 119.361 75.0612 119.01 74.3854C118.26 72.9254 117.557 71.4414 116.903 69.9358C116.459 68.9208 116.169 67.9197 115.615 67.009C112.957 62.6385 110.095 60.0004 105.663 57.4079C104.72 56.856 103.584 56.6391 102.385 56.3546L100.453 56.2372C100.06 56.0733 99.6512 55.5923 99.2819 55.3592C97.8128 54.4314 94.0464 52.4137 92.9588 55.0673C92.2724 56.7418 93.9861 58.3756 94.5983 59.2242C95.0279 59.8194 95.5791 60.4862 95.8864 61.1556C96.0886 61.5958 96.1228 62.0368 96.2965 62.5023C96.7212 63.6486 97.0922 64.8967 97.6424 65.9557C97.9204 66.4922 98.2278 67.0571 98.5792 67.5365C98.7944 67.83 99.1645 67.9604 99.2224 68.4145C98.8612 68.92 98.84 69.7059 98.637 70.3458C97.7223 73.231 98.0672 76.8173 99.3985 78.9524C99.8069 79.6087 100.769 81.0142 102.091 80.4745C103.248 80.0032 102.99 78.5431 103.321 77.2542C103.396 76.9632 103.35 76.748 103.497 76.5523V76.611L104.551 78.7184C105.331 79.9747 106.715 81.2864 107.888 82.1726C108.496 82.6316 108.975 83.4265 109.761 83.6947V83.6352H109.703C109.55 83.3979 109.313 83.3001 109.117 83.1085C108.659 82.6593 108.149 82.1017 107.771 81.5865C106.704 80.1386 105.761 78.5529 104.902 76.9029C104.492 76.1153 104.136 75.2463 103.79 74.4441C103.657 74.1351 103.658 73.6672 103.381 73.5082C103.001 74.0952 102.444 74.5704 102.151 75.2642C101.683 76.373 101.622 77.7254 101.449 79.1277L101.331 79.1856C100.515 78.9891 100.229 78.1494 99.9259 77.4295C99.1596 75.6091 99.0169 72.6766 99.692 70.5806C99.8664 70.0377 100.655 68.3297 100.335 67.8284C100.183 67.3286 99.6797 67.04 99.3993 66.6568C99.0313 66.1441 98.7174 65.5947 98.4626 65.0174C97.8348 63.598 97.5422 62.0042 96.8826 60.5686C96.5663 59.8821 96.0331 59.1884 95.5945 58.5786C95.1095 57.9019 94.5657 57.4046 94.1891 56.5877C94.0554 56.2975 93.8736 55.832 94.0717 55.5336C94.1344 55.3323 94.2249 55.2483 94.4239 55.1823C94.763 54.9206 95.7087 55.2695 96.0625 55.4162C97.0017 55.8067 97.7851 56.1777 98.5808 56.7043C98.9623 56.9579 99.3479 57.447 99.8102 57.5823H100.337C101.161 57.7715 102.085 57.6402 102.854 57.8742C104.216 58.2883 105.435 58.9316 106.542 59.6311C109.917 61.7621 112.675 64.7948 114.563 68.4129C114.866 68.9958 114.998 69.551 115.265 70.1689C115.805 71.4146 116.484 72.697 117.021 73.9158C117.556 75.1313 118.079 76.3583 118.836 77.37C119.234 77.9015 120.772 78.1869 121.47 78.482C121.96 78.6891 122.763 78.9051 123.227 79.1839C124.113 79.7187 124.972 80.3554 125.803 80.9408C126.218 81.2359 127.495 81.8775 127.559 82.4066ZM101.39 60.1023C101.035 60.0964 100.681 60.1359 100.336 60.2197V60.2775H100.395C100.599 60.699 100.96 60.9697 101.214 61.3317L101.8 62.561L101.858 62.5032C102.221 62.248 102.386 61.8396 102.385 61.2151C102.239 61.0618 102.218 60.8702 102.092 60.6884C101.926 60.4439 101.601 60.3069 101.39 60.1023Z" fill="#00618A"/>
</svg>
