<svg width="149" height="33" viewBox="0 0 149 33" fill="none" xmlns="http://www.w3.org/2000/svg">
<g clip-path="url(#clip0_205_9410)">
<path d="M43.8653 18.3819V31.5011H38.4295V18.8661C38.4295 16.7057 37.4569 15.6259 35.6215 15.6259C34.3256 15.6259 32.8136 16.5976 32.1292 17.8575V31.5011H26.6934V7.34524L32.1292 3.17017V13.2141H32.2733C33.4251 12.0255 35.2973 11.6141 37.6345 11.6141C41.5968 11.6141 43.8653 13.8106 43.8653 18.3819Z" fill="#3DA4FE"/>
<path d="M112.624 31.5008H107.188V18.5777C107.188 16.4893 106.216 15.2655 104.38 15.2655C102.796 15.2655 101.5 16.2012 100.889 17.6772V31.4992L95.4512 27.4171V11.3107H99.6991L100.78 12.7716H100.923C102.148 11.2956 104.274 10.8064 106.395 10.8064C110.355 10.8064 112.623 13.0028 112.623 17.5741L112.624 31.5008Z" fill="#3DA4FE"/>
<path d="M119.325 2.59131C121.16 2.59131 122.529 3.95927 122.529 5.83152C122.529 7.52366 121.16 8.89162 119.325 8.89162C118.92 8.89615 118.518 8.82042 118.143 8.66871C117.767 8.51701 117.425 8.29241 117.137 8.00787C116.849 7.72332 116.62 7.38449 116.463 7.01094C116.307 6.63738 116.226 6.23652 116.226 5.83152C116.229 3.95927 117.597 2.59131 119.325 2.59131ZM116.697 11.1232H122.133V31.4625H116.697V11.1232Z" fill="#3DA4FE"/>
<path d="M137.034 25.4033H136.866L133.432 31.8108H126.11L133.562 21.2986L126.533 11.4707H133.562L137.331 17.4468H137.499L140.263 11.4707H147.668L140.808 21.3706L148.004 31.81H140.974L137.034 25.4033Z" fill="#3DA4FE"/>
<path d="M68.4575 20.7758C68.4575 28.1208 63.2462 31.4858 57.8707 31.4858C52.0068 31.4858 47.4883 27.6324 47.4883 21.1444C47.4883 14.6565 51.7563 10.5208 58.1991 10.5208C64.3536 10.5208 68.4575 14.7436 68.4575 20.7758ZM53.931 20.9802C53.931 24.4273 55.3668 27.0116 58.0357 27.0116C60.4567 27.0116 62.0156 24.5907 62.0156 20.9802C62.0156 17.9855 60.8671 14.9488 58.0357 14.9488C55.0384 14.948 53.931 18.0265 53.931 20.9802Z" fill="#3DA4FE"/>
<path d="M78.244 23.3157C78.4567 25.9957 81.0922 27.2719 84.1109 27.2719C86.3216 27.2719 88.1076 26.9742 89.8508 26.4211L90.7003 30.8019C88.575 31.6528 85.9815 32.0782 83.1758 32.0782C76.1155 32.0782 72.0791 27.9951 72.0791 21.4832C72.0791 16.209 75.3525 10.3818 82.5805 10.3818C89.2979 10.3818 91.8487 15.6135 91.8487 20.7601C91.8487 21.615 91.7775 22.4685 91.636 23.3117L78.244 23.3157ZM85.8542 18.8923C85.8542 17.3183 85.1731 14.6816 82.1978 14.6816C79.4764 14.6816 78.3716 17.1482 78.2015 18.8923H85.8542Z" fill="#3DA4FE"/>
<path d="M23.4341 9.51567C23.4341 15.4449 20.3112 20.5582 11.0362 20.5582H7.14092V31.8235L0.214844 28.0128V0.0991211H12.3464C18.7723 0.0991211 23.4341 2.49828 23.4341 9.51567ZM7.1384 5.93786V14.9012H10.6718C15.2875 14.9012 16.2844 12.91 16.2844 10.4665C16.2844 7.34352 14.7455 5.94289 11.2155 5.94289L7.1384 5.93786Z" fill="#FCFCFC"/>
<path d="M7.04577 14.2452V5.91938H11.122C14.6521 5.91938 16.1909 7.32169 16.1909 10.4429C16.1909 11.1759 16.1004 11.867 15.8508 12.4785C16.2994 12.1355 16.7232 11.7612 17.1191 11.3585C19.5216 8.90744 20.4363 5.84902 19.8391 2.26451C19.8307 2.21844 19.8231 2.0132 19.8148 1.87917C17.878 0.603361 15.2585 0.078125 12.2529 0.078125H0.123047V16.6101C1.10985 15.5722 3.40765 13.7535 7.04577 14.2452Z" fill="#3DA4FE"/>
<path d="M1.16514 19.0277C2.52137 17.9731 4.83174 16.771 8.14482 17.0315C12.0745 17.3398 14.8079 16.75 14.8347 16.7442H14.8456C15.8128 16.5306 16.7429 16.174 17.6049 15.6862C18.9595 14.9322 20.7756 13.5081 21.7348 11.0143C21.7465 10.985 22.7811 8.34291 22.3371 4.75171L22.3245 4.6738C21.8563 3.75198 21.1952 2.94173 20.3861 2.2981C21.1149 6.92385 19.2267 9.98731 17.4885 11.754C16.7052 12.545 15.8241 13.2328 14.8665 13.8005C14.4482 14.1206 13.9745 14.3611 13.4692 14.51L13.3922 14.541V14.5352C12.6525 14.7572 11.7302 14.8795 10.585 14.8795H7.04577V14.8041C5.12996 14.5268 3.3909 14.8803 1.87216 15.8612C1.22214 16.291 0.633686 16.8072 0.123047 17.3959V19.9651C0.447531 19.6281 0.795792 19.3148 1.16514 19.0277Z" fill="#3DA4FE"/>
<path d="M0.136172 25.0968L0.121094 25.0884V27.9927L7.04549 31.8034V20.9678C2.27062 21.3849 0.156277 25.0616 0.136172 25.0968Z" fill="#3DA4FE"/>
<path d="M22.936 6.25269C22.998 9.13939 22.2299 11.0971 22.1913 11.1951C21.1777 13.8296 19.2594 15.33 17.8278 16.1241C16.314 16.9618 15.0424 17.2072 14.936 17.2265C14.7643 17.2642 12.0678 17.833 8.10629 17.5222C5.58147 17.3245 3.35236 17.957 1.48346 19.4037C0.987791 19.7875 0.532021 20.2203 0.123047 20.6954V24.2481C0.946002 23.1718 1.98565 22.2802 3.17481 21.6308C4.36395 20.9815 5.67613 20.5889 7.0265 20.4784L7.04744 20.7231V20.5379H10.9427C20.2202 20.5379 23.3406 15.428 23.3406 9.49541C23.3535 8.40115 23.2174 7.31023 22.936 6.25269Z" fill="#3DA4FE"/>
<path d="M13.3883 14.5417L13.4653 14.5107L13.3857 14.5359L13.3883 14.5417Z" fill="white"/>
<path d="M7.06684 20.966L7.0459 20.7214V20.9677L7.06684 20.966Z" fill="white"/>
</g>
<defs>
<clipPath id="clip0_205_9410">
<rect width="147.937" height="32" fill="white" transform="translate(0.121094 0.078125)"/>
</clipPath>
</defs>
</svg>
