<svg width="160" height="160" viewBox="0 0 160 160" fill="none" xmlns="http://www.w3.org/2000/svg">
<rect width="160" height="160" rx="16" fill="white"/>
<path fill-rule="evenodd" clip-rule="evenodd" d="M79.6307 102.637C80.7507 103.563 82.0638 103.958 83.4813 104.031C84.0676 104.062 84.6707 104.033 85.2476 103.928C86.1626 103.762 87.0751 103.553 87.9651 103.285C89.7776 102.738 91.3438 101.793 92.5132 100.267C93.1795 99.3969 93.7263 98.4562 94.0776 97.4162C94.3676 96.5581 94.6401 95.6912 94.857 94.8131C95.0282 94.1212 95.1132 93.4069 95.217 92.7C95.2863 92.2325 95.3282 91.76 95.3713 91.2881C95.4413 90.5225 95.5145 89.7581 95.5651 88.9906C95.6007 88.4569 95.5995 87.9206 95.6201 87.3862C95.627 87.2231 95.6532 87.0613 95.6688 86.8994C95.682 86.7488 95.7582 86.6969 95.912 86.6994C96.452 86.7075 96.9932 86.7212 97.5326 86.6969C98.137 86.67 98.7457 86.6437 99.3407 86.5444C100.187 86.4026 101.027 86.2232 101.858 86.0069C102.838 85.75 103.738 85.2906 104.604 84.7681C105.611 84.1587 106.531 83.4444 107.276 82.5238C107.925 81.7225 108.233 80.7938 108.076 79.7806C107.848 78.3088 106.611 77.3444 105.173 77.2788C104.652 77.255 104.123 77.31 103.604 77.3756C102.976 77.4556 102.358 77.5969 101.731 77.69C101.299 77.755 100.861 77.7838 100.429 77.8288L100.418 77.7725C101.224 76.2494 102.064 74.7437 102.826 73.2C103.412 72.015 103.912 70.7881 104.429 69.5694C105.285 67.5519 105.968 65.4725 106.534 63.3581C107.076 61.3344 107.54 59.2887 107.687 57.1888C107.746 56.3506 107.786 55.5088 107.781 54.6694C107.777 53.9994 107.704 53.3287 107.638 52.6612C107.561 51.8962 107.33 51.1712 107.01 50.4737C106.589 49.5537 105.934 48.7994 105.246 48.0831C104.696 47.5094 104.089 46.9869 103.489 46.4644C102.632 45.7194 101.668 45.1238 100.668 44.5956C99.5347 43.9935 98.3338 43.5278 97.0907 43.2081C96.3332 43.0171 95.5709 42.846 94.8045 42.695C94.532 42.64 94.257 42.5 93.9826 42.5H88.8151C88.6282 42.5 88.4432 42.6225 88.2551 42.6431C87.0184 42.7781 85.7972 43.0303 84.6082 43.3963C84.1645 43.5331 83.7595 43.4531 83.3376 43.4137C83.0138 43.3837 82.6957 43.3006 82.372 43.2844C81.1401 43.2231 79.907 43.1344 78.6745 43.1475C77.4945 43.16 76.3263 43.355 75.1845 43.6788C74.2288 43.9513 73.2932 44.2819 72.4357 44.785C72.0695 45 71.7782 44.9594 71.3988 44.8506C70.1247 44.4774 68.8396 44.1431 67.5451 43.8481C66.7382 43.6675 65.9076 43.5762 65.0832 43.4912C64.292 43.4091 63.4978 43.3597 62.7026 43.3431C61.9263 43.3262 61.1451 43.3269 60.372 43.3956C59.1413 43.505 57.9345 43.755 56.7607 44.1587C55.4669 44.6011 54.2579 45.2608 53.1857 46.1094C52.092 46.975 51.2145 48.0306 50.5101 49.2375C49.767 50.5106 49.2563 51.8738 48.9401 53.3044C48.7682 54.08 48.8313 54.8775 48.7132 55.665C48.677 55.9087 48.7501 56.1538 48.7501 56.3988V59.8269C48.7501 60.0544 48.6832 60.2825 48.712 60.5112C48.7826 61.0606 48.7582 61.6144 48.8513 62.16C48.9976 63.0238 49.1295 63.8844 49.307 64.7419C49.5551 65.94 49.792 67.1369 50.067 68.3294C50.267 69.1975 50.4838 70.0606 50.722 70.9188C51.0845 72.23 51.4382 73.5431 51.8488 74.8387C52.2307 76.0431 52.6657 77.23 53.1001 78.4175C53.6953 80.0595 54.4248 81.6497 55.2813 83.1719C56.0282 84.4912 56.8801 85.7269 58.0238 86.7425C58.7782 87.4125 59.6163 87.9269 60.592 88.1844C61.3541 88.3868 62.1529 88.409 62.9251 88.2494C63.8202 88.0675 64.6565 87.667 65.3595 87.0837C65.442 87.0169 65.5313 86.965 65.6295 87.0888C66.0007 87.5588 66.497 87.8725 67.0163 88.1431C68.4176 88.8744 69.9445 89.0938 71.4951 89.1825C71.8713 89.2038 72.2501 89.15 72.6282 89.14C73.3663 89.1194 74.0826 88.9756 74.787 88.7719C75.157 88.665 75.5176 88.5288 75.8938 88.4025C75.9132 88.8031 75.9382 89.1881 75.9507 89.5737L76.0026 91.6756C76.0126 91.9956 76.0251 92.3156 76.0545 92.6344C76.1307 93.4556 76.2051 94.2769 76.3032 95.0956C76.3707 95.66 76.442 96.2281 76.5745 96.7794C76.8408 97.8903 77.2052 98.9753 77.6632 100.022C78.1017 101.038 78.7762 101.934 79.6307 102.637ZM77.3863 92.1569C77.342 91.17 77.3088 90.1826 77.287 89.195C77.2607 87.9812 77.252 86.7669 77.2351 85.5531L77.232 85.5069C76.6151 85.8775 76.007 86.2825 75.3638 86.6169C74.6095 87.0087 73.7907 87.2356 72.9426 87.3C72.2782 87.35 71.6038 87.3956 70.9426 87.3431C69.8576 87.255 68.7726 87.0856 67.8013 86.5506C67.4076 86.3338 66.9963 86.0694 66.7245 85.7237C66.0738 84.8931 66.3857 83.8438 67.367 83.3388C68.0451 82.9888 68.7851 82.8431 69.5201 82.6731C70.1599 82.5281 70.793 82.355 71.4176 82.1544C72.0338 81.9525 72.4226 81.4525 72.807 80.9619L73.4157 80.1794L72.6838 80.1031C71.9576 80.0356 71.2645 79.835 70.602 79.5412C70.0357 79.2906 70.027 79.2631 69.6107 79.7144C68.917 80.4675 68.242 81.2394 67.5613 82.0056C67.0607 82.5694 66.5638 83.1362 66.0645 83.7019C65.572 84.2612 65.1095 84.8519 64.5776 85.3719C63.7888 86.1444 62.8376 86.6087 61.7026 86.5562C60.9745 86.5225 60.3082 86.2675 59.7082 85.8506C58.4713 84.9894 57.6382 83.7831 56.8788 82.5175C55.907 80.895 55.1601 79.1669 54.522 77.3919C54.0801 76.1644 53.6357 74.9362 53.2507 73.6912C52.8313 72.3381 52.4632 70.9694 52.1013 69.5994C51.8276 68.5662 51.5851 67.5244 51.3538 66.4806C51.0876 65.2942 50.8413 64.1034 50.6151 62.9087C50.4645 62.1019 50.3776 61.2831 50.2557 60.4713C50.0913 59.3756 50.0613 58.2712 50.1213 57.1719C50.1745 56.1813 50.3163 55.1938 50.4576 54.21C50.6532 52.8488 51.102 51.5644 51.747 50.3513C52.1448 49.612 52.6325 48.9247 53.1988 48.305C54.1301 47.2744 55.257 46.53 56.5107 45.9706C57.3863 45.58 58.312 45.3456 59.2551 45.1613C60.6551 44.8888 62.0676 44.9 63.4801 44.9288C64.0976 44.9419 64.7132 45.0538 65.3301 45.1156C66.6588 45.2475 67.9607 45.5275 69.2463 45.8719C70.1838 46.1231 71.102 46.4494 72.0307 46.7319C72.1232 46.76 72.2601 46.7575 72.337 46.7081C73.5963 45.8856 74.972 45.3431 76.4363 45.0325C76.992 44.915 77.5657 44.8631 78.1338 44.8269C78.8238 44.7838 79.5207 44.7425 80.2095 44.7831C81.0376 44.8306 81.8632 44.9525 82.6863 45.065C83.0863 45.12 83.4763 45.2581 83.8763 45.2956C84.0688 45.3137 84.272 45.1744 84.4745 45.1269C85.5082 44.8875 86.5376 44.6219 87.5807 44.4337C88.357 44.2937 89.1507 44.2275 89.9395 44.1825C90.8207 44.1319 91.707 44.095 92.587 44.1375C93.6995 44.1912 94.8038 44.3494 95.8938 44.6031C97.2451 44.9175 98.5401 45.3738 99.772 46.0075C100.693 46.4819 101.567 47.0306 102.355 47.7056C102.871 48.1488 103.4 48.5856 103.866 49.0794C104.441 49.6881 105.027 50.2963 105.388 51.0756C105.66 51.6638 105.854 52.2725 105.908 52.9156C105.974 53.7163 106.054 54.5194 106.048 55.3212C106.041 56.0875 105.936 56.8531 105.862 57.6181C105.693 59.3606 105.314 61.0656 104.854 62.7481C104.469 64.1379 104.034 65.513 103.548 66.8706C103.105 68.1225 102.593 69.3513 102.076 70.5756C101.695 71.4821 101.282 72.3746 100.836 73.2512C99.9901 74.9087 99.1101 76.5494 98.092 78.1119C97.9163 78.3812 97.7495 78.6575 97.5782 78.9331C98.0226 79.2325 98.5257 79.3381 99.032 79.3931C99.5138 79.445 100.005 79.4769 100.486 79.4406C101.257 79.3831 102.025 79.2731 102.791 79.1663C103.55 79.06 104.293 78.8444 105.073 78.9012C105.851 78.9581 106.408 79.5494 106.355 80.2781C106.321 80.7394 106.109 81.135 105.803 81.4731C104.356 83.0694 102.54 84.0369 100.463 84.5137C99.6732 84.695 98.8595 84.7881 98.0513 84.8637C97.3612 84.9247 96.6679 84.941 95.9757 84.9125C95.4682 84.8937 94.9651 84.7775 94.4463 84.7025C94.3938 85.1769 94.3445 85.6712 94.2845 86.1637L94.0426 88.0531C93.9695 88.6519 93.9126 89.2531 93.837 89.8519C93.7632 90.4331 93.6713 91.0112 93.5938 91.5919C93.522 92.1325 93.4688 92.6763 93.3876 93.2163C93.2645 94.0438 93.1463 94.8731 92.9845 95.6944C92.7907 96.6756 92.4945 97.6256 92.0088 98.5112C91.4176 99.5919 90.5795 100.415 89.512 101.024C88.412 101.653 87.2088 101.979 85.9907 102.253C85.127 102.448 84.2388 102.479 83.3645 102.399C81.8488 102.262 80.5551 101.614 79.577 100.439C78.6438 99.3169 78.012 98.0319 77.7863 96.5763C77.6801 95.8836 77.5976 95.1876 77.5388 94.4894C77.4712 93.7131 77.4203 92.9354 77.3863 92.1569ZM79.0901 82.1856C79.0995 82.7044 79.0457 83.2231 79.0482 83.7419C79.0588 86.1562 79.0763 88.5713 79.097 90.9863C79.1007 91.3806 79.1201 91.7762 79.1482 92.17C79.2076 92.995 79.2663 93.8206 79.3463 94.6431C79.4038 95.2275 79.482 95.81 79.5738 96.39C79.7051 97.2106 80.0788 97.9419 80.5026 98.6412C80.8676 99.2425 81.3432 99.7525 81.9688 100.105C83.0326 100.703 84.177 100.753 85.3307 100.533C86.1101 100.385 86.8763 100.146 87.6326 99.8988C88.3769 99.66 89.0565 99.2535 89.6188 98.7106C90.1495 98.1969 90.5257 97.57 90.7795 96.8781C91.2713 95.5369 91.4257 94.1238 91.6288 92.7225C91.7051 92.1975 91.7713 91.6712 91.8407 91.1456C91.9201 90.5475 92.0001 89.95 92.0763 89.3519C92.1338 88.9056 92.1851 88.46 92.2395 88.0144C92.3176 87.3744 92.3995 86.735 92.4738 86.095C92.5307 85.6 92.5782 85.1031 92.6295 84.6069C92.6945 83.9725 92.7638 83.34 92.8207 82.7044C92.8632 82.2231 92.8457 81.7325 92.9313 81.2594C93.0882 80.3925 93.4982 79.655 94.267 79.1775C94.5882 78.9787 94.952 78.8475 95.3082 78.6787L95.247 78.5856C94.9176 78.1581 94.5801 77.7375 94.257 77.305C93.7495 76.6263 93.3845 75.8694 93.0176 75.1087C92.6701 74.3875 92.2451 73.705 91.8795 72.9919C91.2413 71.7481 90.5913 70.5075 90.0032 69.2406C89.2638 67.6469 88.6813 65.9981 88.4982 64.2331C88.4201 63.4869 88.4001 62.7406 88.552 62.0012C88.7938 60.82 89.4101 59.8962 90.4476 59.2625C91.4101 58.675 92.482 58.485 93.5801 58.4256C94.2613 58.3888 94.947 58.4187 95.6538 58.4187L95.6307 58.2994C95.1907 57.3794 94.7801 56.4438 94.2982 55.5463C93.6195 54.2788 92.7495 53.1362 91.782 52.0756C91.068 51.287 90.2835 50.5652 89.4382 49.9194C88.602 49.2863 87.7207 48.7206 86.7801 48.2587C85.6627 47.7029 84.4826 47.2833 83.2651 47.0087C82.087 46.7475 80.9026 46.5875 79.6938 46.5744C78.6638 46.5631 77.6401 46.6106 76.6363 46.8425C75.1213 47.1931 73.7357 47.8169 72.5313 48.8269C71.8643 49.386 71.2683 50.025 70.757 50.7294C70.1526 51.5575 69.6663 52.4537 69.2501 53.3919C68.6788 54.68 68.287 56.0194 68.0182 57.3969C67.8845 58.0844 67.7795 58.7763 67.6726 59.4681C67.6351 59.7113 67.6326 59.9581 67.6101 60.2362L68.0676 59.9981L68.5138 59.7981C70.0245 59.1075 71.5888 58.6631 73.2701 58.7137C73.9851 58.735 74.6676 58.8769 75.3038 59.19C76.5226 59.7913 77.2351 60.8131 77.5451 62.1056C77.7588 62.9981 77.9057 63.9081 78.0482 64.8162C78.1595 65.525 78.2738 66.2413 78.2863 66.9563C78.3045 68.0013 78.252 69.0487 78.1951 70.0931C78.1465 70.9812 77.9627 71.8567 77.6501 72.6894C77.0851 74.1994 76.4551 75.685 75.867 77.1862C75.6726 77.6825 75.5232 78.1956 75.3401 78.7412L76.0826 78.7419C76.1726 78.7438 76.2645 78.7463 76.3513 78.7669C77.027 78.9263 77.6138 79.2325 78.0945 79.7525C78.737 80.4425 79.0732 81.25 79.0901 82.1856ZM66.1857 75.0262C65.8028 74.1251 65.5717 73.1667 65.502 72.19C65.437 71.2688 65.5463 70.3525 65.6413 69.435C65.7326 68.5469 65.8101 67.6544 65.8363 66.7631C65.8807 65.2962 65.782 63.8331 65.712 62.3675C65.6701 61.495 65.7713 60.6119 65.8488 59.7375C65.9188 58.95 66.0063 58.1606 66.1557 57.3844C66.4051 56.0819 66.737 54.7981 67.2088 53.5538C67.6557 52.3738 68.1707 51.2256 68.8957 50.1912C69.3938 49.4812 69.9576 48.8194 70.4995 48.1256L70.3382 48.0681C68.5738 47.5081 66.7801 47.0694 64.9345 46.8787C64.0626 46.7881 63.187 46.7356 62.3126 46.6831C62.0438 46.6675 61.7713 46.7038 61.502 46.7294C60.8351 46.7938 60.1595 46.8187 59.5032 46.9437C58.3863 47.1562 57.3145 47.5138 56.3226 48.0956C55.4448 48.6121 54.6752 49.2936 54.0563 50.1025C53.3645 50.9969 52.8976 52.0081 52.5632 53.0856C52.1682 54.3575 51.9795 55.6669 51.9288 56.9875C51.8845 58.1456 51.8626 59.31 52.0626 60.4638C52.2107 61.3219 52.3101 62.19 52.4738 63.0456C52.694 64.2122 52.9411 65.3736 53.2151 66.5287C53.6107 68.1812 54.007 69.835 54.4763 71.4675C54.9251 73.0306 55.4307 74.58 55.9807 76.1113C56.4295 77.3606 56.9488 78.5869 57.4957 79.7962C57.852 80.5844 58.2832 81.3431 58.7357 82.0806C59.2163 82.8644 59.7638 83.6081 60.5051 84.1769C61.442 84.8944 62.1663 85.0062 63.1188 84.2181C63.5263 83.8812 63.8707 83.4637 64.2257 83.0669C64.7888 82.4369 65.3326 81.7881 65.8938 81.155C66.6082 80.3494 67.3313 79.5519 68.0495 78.7487C68.2013 78.5794 68.3482 78.4044 68.4957 78.2331L68.2501 78.0188C67.3646 77.1729 66.662 76.1544 66.1857 75.0262ZM93.2738 51.0244C93.8612 51.7067 94.4184 52.4145 94.9438 53.1456C95.9509 54.5578 96.7614 56.1002 97.3532 57.7306C97.6157 58.4525 97.8257 59.1812 97.732 59.9706C97.667 60.5238 97.6713 61.0844 97.6232 61.6406C97.5826 62.1031 97.5088 62.5631 97.4495 63.0244C97.3595 63.7194 97.2295 64.4131 97.1907 65.1113C97.1532 65.7763 97.1926 66.4475 97.2345 67.1131C97.2763 67.79 97.3676 68.4638 97.4295 69.1388C97.4995 69.9056 97.5945 70.6706 97.6157 71.4387C97.6332 72.0687 97.577 72.7019 97.5226 73.3319C97.4527 74.0867 97.2694 74.8267 96.9788 75.5269C96.777 76.0231 96.5363 76.5031 96.3095 76.9994L96.4007 77.0956L96.5395 77.2031L96.6801 76.9531C97.8603 75.0961 98.9089 73.1587 99.8182 71.155C100.401 69.8617 100.954 68.5551 101.477 67.2362C102.292 65.1861 102.95 63.0772 103.446 60.9275C103.671 59.9625 103.844 58.9825 103.996 58.0025C104.116 57.2363 104.214 56.4613 104.237 55.6881C104.26 54.8681 104.215 54.0419 104.139 53.2244C104.083 52.6069 103.93 51.9856 103.544 51.4825C102.921 50.6744 102.25 49.9019 101.424 49.29C100.729 48.7756 100.035 48.2462 99.2895 47.8137C98.1063 47.1269 96.8257 46.6706 95.4876 46.3594C94.1807 46.055 92.8582 45.9237 91.527 45.8956C90.742 45.8787 89.9532 45.9631 89.1701 46.0375C88.4601 46.1037 87.7545 46.2175 87.0401 46.3112C87.807 46.7425 88.5638 47.1262 89.2763 47.5781C90.7763 48.5281 92.1213 49.6712 93.2738 51.0244ZM73.7863 77.6263C74.2707 76.0762 74.9313 74.595 75.5707 73.1063C76.0901 71.8981 76.3732 70.6262 76.4676 69.3188C76.5145 68.6744 76.502 68.0219 76.4701 67.3756C76.439 66.6566 76.3731 65.9395 76.2726 65.2269C76.1382 64.3181 75.9857 63.4088 75.7707 62.5169C75.5376 61.5519 74.9501 60.8794 73.9426 60.6312C73.3295 60.4806 72.7195 60.4869 72.0988 60.585C70.5845 60.8231 69.1982 61.3813 67.907 62.1988C67.647 62.3631 67.5032 62.4963 67.5488 62.8681C67.6438 63.6581 67.6645 64.4606 67.6607 65.2575C67.6557 66.3856 67.6076 67.5138 67.5651 68.6413C67.5513 69.0081 67.4982 69.3744 67.4582 69.74C67.3982 70.3 67.2813 70.8594 67.2851 71.4188C67.2888 71.995 67.3476 72.5844 67.4876 73.1425C67.932 74.9125 68.872 76.36 70.4138 77.3819C71.362 78.0106 72.4107 78.3269 73.5626 78.3875C73.6388 78.1231 73.7095 77.8737 73.7863 77.6263ZM71.9763 62.4456C71.7732 62.02 71.8895 61.6669 72.3595 61.5031C72.4745 61.4637 72.592 61.42 72.7107 61.4088C72.8751 61.3925 73.0407 61.4044 73.2063 61.4044C73.8032 61.4081 74.377 61.4913 74.8688 61.87C75.1851 62.1138 75.2701 62.4356 75.0651 62.7681C74.7745 63.2388 74.3326 63.475 73.7888 63.52C72.9332 63.5906 72.3326 63.1919 71.9763 62.4456ZM95.7107 62.29L95.9051 60.5869C95.9332 60.3594 95.8138 60.2969 95.6226 60.2913C95.0207 60.275 94.4195 60.2531 93.8176 60.2431C93.1401 60.2306 92.4795 60.3394 91.852 60.5969C91.1557 60.8838 90.6257 61.3425 90.4088 62.1006C90.2501 62.6593 90.2001 63.2431 90.2613 63.8206C90.3459 64.7142 90.5483 65.5926 90.8632 66.4331C91.2845 67.5537 91.7245 68.6737 92.2513 69.7475C92.9645 71.2006 93.7707 72.6081 94.5282 74.0394C94.7301 74.4213 94.9013 74.8206 95.112 75.2663C95.5373 74.3797 95.7695 73.413 95.7932 72.43C95.8138 71.6169 95.7495 70.8019 95.702 69.9887C95.6726 69.4912 95.602 68.9962 95.5538 68.5C95.487 67.8087 95.3845 67.1169 95.3682 66.4237C95.3526 65.7188 95.4026 65.01 95.4626 64.3056C95.5188 63.6319 95.6301 62.9625 95.7107 62.29ZM94.3551 61.7438C94.1313 62.3606 93.6538 62.7094 93.0338 62.8113C92.4563 62.9069 91.9501 62.6937 91.5738 62.2325C91.3057 61.9044 91.4082 61.5163 91.8101 61.2938C92.2713 61.0387 92.7782 60.9744 93.3763 60.9356C93.5395 60.965 93.7832 60.9906 94.0157 61.0562C94.3526 61.1512 94.4776 61.4062 94.3551 61.7438ZM76.4813 80.7456C76.1513 80.4756 75.7138 80.46 75.4001 80.7562C75.0101 81.125 74.667 81.5462 74.3238 81.9613C73.9282 82.4412 73.5557 82.94 73.0457 83.3119C72.3026 83.8525 71.4345 84.0762 70.5632 84.2881C69.8707 84.4569 69.1745 84.6138 68.4801 84.775L68.4713 84.865C68.6776 84.96 68.877 85.0794 69.0926 85.1475C70.152 85.4825 71.2301 85.65 72.3501 85.555C73.1576 85.4856 73.9276 85.3094 74.657 84.9638C75.6613 84.4881 76.4345 83.7337 77.0913 82.8575C77.2013 82.7113 77.2513 82.495 77.2638 82.3063C77.3082 81.64 76.9701 81.1444 76.4813 80.7456ZM95.822 80.4569C95.3026 80.6313 94.8801 80.8969 94.7545 81.4587C94.6688 81.8387 94.6376 82.2319 94.6045 82.6213C94.5982 82.69 94.6838 82.8162 94.7488 82.8337C95.1488 82.9394 95.5513 83.0637 95.9601 83.1006C96.4632 83.1462 96.9745 83.1319 97.4807 83.1069C98.027 83.0794 98.577 83.0437 99.1157 82.9538C100.384 82.74 101.612 82.3937 102.702 81.6738C103.096 81.4144 103.484 81.1494 103.876 80.8856L103.843 80.83C103.426 80.8919 103.011 80.9675 102.592 81.0119C101.739 81.1031 100.886 81.1994 100.031 81.2487C99.6176 81.2725 99.1988 81.1931 98.7826 81.1594C98.0838 81.1025 97.4013 80.9475 96.8107 80.5737C96.4701 80.3587 96.1851 80.335 95.822 80.4569Z" fill="#336791"/>
<path d="M41.7715 104.49C42.6689 104.344 43.5768 104.274 44.4859 104.279C45.8827 104.279 46.9071 104.604 47.5571 105.189C48.1584 105.709 48.5159 106.505 48.5159 107.481C48.5159 108.472 48.2227 109.252 47.6702 109.821C46.9227 110.617 45.704 111.023 44.3227 111.023C43.9002 111.023 43.5102 111.007 43.1859 110.926V115.314H41.7715V104.49ZM43.1859 109.771C43.4946 109.852 43.8846 109.885 44.3559 109.885C46.0615 109.885 47.1021 109.056 47.1021 107.545C47.1021 106.099 46.0784 105.4 44.5184 105.4C43.9009 105.4 43.4296 105.449 43.1859 105.514V109.771ZM57.0796 111.315C57.0796 114.224 55.064 115.492 53.1627 115.492C51.034 115.492 49.3927 113.932 49.3927 111.445C49.3927 108.812 51.1152 107.269 53.2927 107.269C55.5521 107.268 57.0796 108.91 57.0796 111.315ZM50.8396 111.396C50.8396 113.119 51.8309 114.419 53.2284 114.419C54.5934 114.419 55.6165 113.135 55.6165 111.364C55.6165 110.031 54.9509 108.341 53.2602 108.341C51.5696 108.341 50.8396 109.901 50.8396 111.396ZM58.6877 113.85C59.1102 114.126 59.8577 114.419 60.5727 114.419C61.6127 114.419 62.1002 113.899 62.1002 113.249C62.1002 112.566 61.6946 112.192 60.6377 111.802C59.224 111.299 58.5577 110.519 58.5577 109.576C58.5577 108.309 59.5815 107.269 61.2715 107.269C62.0677 107.269 62.7671 107.496 63.2059 107.756L62.8484 108.796C62.3647 108.498 61.8077 108.341 61.2396 108.341C60.3946 108.341 59.9234 108.829 59.9234 109.414C59.9234 110.064 60.3952 110.356 61.419 110.746C62.784 111.266 63.4827 111.949 63.4827 113.119C63.4827 114.5 62.4102 115.475 60.5415 115.475C59.6802 115.475 58.884 115.264 58.3315 114.939L58.6877 113.85ZM67.0409 105.188V107.447H69.0877V108.536H67.0409V112.777C67.0409 113.752 67.3165 114.304 68.1134 114.304C68.3927 114.308 68.6713 114.276 68.9421 114.207L69.0071 115.279C68.7315 115.393 68.2921 115.474 67.7402 115.474C67.074 115.474 66.5371 115.263 66.1959 114.873C65.7902 114.451 65.6434 113.752 65.6434 112.826V108.536H64.4246V107.447H65.6434V105.562L67.0409 105.188ZM77.3759 107.447C77.3427 108.016 77.3109 108.65 77.3109 109.609V114.175C77.3109 115.979 76.9534 117.084 76.1896 117.767C75.4259 118.482 74.3209 118.709 73.3296 118.709C72.3871 118.709 71.3471 118.482 70.7127 118.059L71.0702 116.971C71.5902 117.296 72.4027 117.588 73.3777 117.588C74.8402 117.588 75.9127 116.824 75.9127 114.842V113.964H75.8802C75.4415 114.696 74.5965 115.281 73.3777 115.281C71.4277 115.281 70.0302 113.623 70.0302 111.445C70.0302 108.78 71.769 107.269 73.5727 107.269C74.9384 107.269 75.6859 107.984 76.0271 108.634H76.0596L76.1246 107.447H77.3759ZM75.8971 110.551C75.8971 110.307 75.8809 110.096 75.8159 109.901C75.5559 109.072 74.8571 108.39 73.8171 108.39C72.4515 108.39 71.4771 109.544 71.4771 111.364C71.4771 112.907 72.2571 114.191 73.8009 114.191C74.6784 114.191 75.4746 113.639 75.7834 112.729C75.8646 112.485 75.8977 112.209 75.8977 111.965V110.551H75.8971ZM79.5852 109.901C79.5852 108.975 79.569 108.179 79.5202 107.447H80.7721L80.8202 108.991H80.8852C81.2427 107.935 82.104 107.269 83.0627 107.269C83.2252 107.269 83.3384 107.285 83.4684 107.317V108.666C83.3085 108.631 83.1451 108.615 82.9815 108.617C81.974 108.617 81.2584 109.381 81.064 110.454C81.0239 110.674 81.0021 110.896 80.999 111.12V115.312H79.5852V109.901ZM85.5334 111.64C85.5659 113.574 86.8002 114.37 88.2302 114.37C89.2546 114.37 89.8715 114.191 90.4077 113.964L90.6515 114.987C90.1477 115.215 89.2865 115.475 88.0352 115.475C85.614 115.475 84.1677 113.882 84.1677 111.51C84.1677 109.137 85.5652 107.268 87.8565 107.268C90.424 107.268 91.1065 109.527 91.1065 110.973C91.1065 111.266 91.074 111.493 91.0577 111.639H85.5334V111.64ZM89.7259 110.616C89.7415 109.706 89.3515 108.292 87.7434 108.292C86.2971 108.292 85.6634 109.625 85.549 110.616H89.7259ZM92.7315 113.59C93.4976 114.05 94.3728 114.297 95.2665 114.305C96.7127 114.305 97.5577 113.541 97.5577 112.436C97.5577 111.412 96.9727 110.827 95.494 110.259C93.7065 109.625 92.6015 108.699 92.6015 107.155C92.6015 105.449 94.0152 104.181 96.144 104.181C97.2652 104.181 98.0777 104.441 98.5652 104.717L98.1752 105.871C97.536 105.527 96.821 105.349 96.0952 105.351C94.6002 105.351 94.0315 106.245 94.0315 106.992C94.0315 108.016 94.6971 108.52 96.209 109.105C98.0615 109.821 99.004 110.714 99.004 112.322C99.004 114.012 97.7527 115.475 95.169 115.475C94.1127 115.475 92.959 115.166 92.3734 114.776L92.7315 113.59ZM109.973 116.921C108.56 116.55 107.162 116.128 105.78 115.654C105.553 115.572 105.325 115.491 105.114 115.491C102.514 115.394 100.288 113.476 100.288 109.95C100.288 106.44 102.433 104.181 105.39 104.181C108.364 104.181 110.298 106.489 110.298 109.722C110.298 112.534 108.998 114.337 107.178 114.971V115.036C108.267 115.312 109.453 115.572 110.38 115.735L109.973 116.921ZM108.803 109.787C108.803 107.594 107.666 105.334 105.341 105.334C102.953 105.334 101.783 107.544 101.799 109.917C101.783 112.241 103.066 114.337 105.276 114.337C107.536 114.337 108.803 112.29 108.803 109.787ZM112.133 104.36H113.548V114.126H118.228V115.312H112.133V104.36Z" fill="#336791"/>
</svg>
