<svg width="160" height="160" viewBox="0 0 160 160" fill="none" xmlns="http://www.w3.org/2000/svg">
<rect width="160" height="160" rx="16" fill="white"/>
<path d="M79.9993 87.2145C84.0257 87.2145 87.2897 83.9505 87.2897 79.9241C87.2897 75.8978 84.0257 72.6338 79.9993 72.6338C75.973 72.6338 72.709 75.8978 72.709 79.9241C72.709 83.9505 75.973 87.2145 79.9993 87.2145Z" fill="#00D8FF"/>
<path d="M79.9998 96.6397C71.2372 96.8516 62.4965 95.6705 54.1045 93.1403C50.2278 91.9114 46.6121 89.9755 43.4401 87.4305C42.2297 86.5611 41.2217 85.4401 40.4853 84.1445C39.7489 82.8488 39.3015 81.4092 39.1738 79.9244C39.1738 75.104 44.4695 70.3799 53.3404 67.2888C61.9568 64.5498 70.9595 63.2223 79.9998 63.3578C88.9194 63.2332 97.8014 64.5366 106.309 67.2188C110.043 68.409 113.536 70.2513 116.626 72.6603C117.816 73.4892 118.809 74.5695 119.535 75.8249C120.26 77.0802 120.701 78.4798 120.826 79.9244C120.826 84.9343 114.906 90.0113 105.37 93.1666C97.1406 95.6143 88.5844 96.7856 79.9998 96.6397ZM79.9998 66.8455C71.3508 66.7299 62.7386 67.9918 54.4865 70.584C46.3213 73.4331 42.6615 77.329 42.6615 79.9156C42.6615 82.6218 46.5954 86.8765 55.233 89.8305C63.2613 92.2388 71.6206 93.3599 79.9998 93.152C88.2128 93.2989 96.3999 92.1876 104.277 89.8567C113.244 86.8852 117.326 82.6247 117.326 79.9244C117.179 78.9977 116.841 78.1116 116.335 77.3221C115.828 76.5325 115.162 75.8567 114.381 75.3373C111.616 73.2002 108.495 71.5674 105.163 70.514C97.0242 67.9588 88.5294 66.7203 79.9998 66.8455Z" fill="#00D8FF"/>
<path d="M63.4352 116.286C62.0748 116.317 60.7305 115.987 59.5393 115.329C55.3633 112.921 53.9169 105.974 55.6695 96.7448C57.6019 87.912 60.9501 79.45 65.5844 71.6864C69.9316 63.8977 75.4969 56.8547 82.0693 50.8243C84.9655 48.1844 88.3066 46.0784 91.9375 44.6042C93.2509 43.9887 94.6835 43.6697 96.1339 43.6697C97.5842 43.6697 99.0169 43.9887 100.33 44.6042C104.672 47.1063 106.11 54.7699 104.083 64.606C102.091 72.9595 98.83 80.9581 94.4133 88.3229C90.2192 96.0197 84.8291 103.001 78.4446 109.007C75.4432 111.751 71.9601 113.915 68.171 115.391C66.6541 115.954 65.053 116.256 63.4352 116.286ZM68.6055 73.4186C64.1849 80.8528 60.9759 88.9432 59.0989 97.3863C57.4863 105.887 59.0348 110.999 61.286 112.299C63.6189 113.65 69.2821 112.369 76.1583 106.362C82.2531 100.608 87.3978 93.9254 91.401 86.5616C95.6321 79.5206 98.7604 71.8734 100.677 63.8857C102.584 54.627 100.937 48.958 98.598 47.6107C97.7214 47.2749 96.7847 47.1245 95.8471 47.1692C94.9095 47.2139 93.9913 47.4526 93.1507 47.8703C89.9186 49.204 86.9473 51.0974 84.3731 53.4634C78.0937 59.2397 72.7776 65.9822 68.6259 73.4361L68.6055 73.4186Z" fill="#00D8FF"/>
<path d="M96.5535 116.323C92.6022 116.323 87.5835 113.932 82.3578 109.438C75.6702 103.353 70.0108 96.2266 65.5987 88.3344C61.0225 80.6776 57.7009 72.338 55.7597 63.6318C54.9178 59.8014 54.7618 55.8521 55.2989 51.9672C55.4231 50.5261 55.8619 49.1297 56.5844 47.8766C57.307 46.6235 58.2956 45.5442 59.4807 44.7148C63.817 42.204 71.1744 44.7848 78.6834 51.4511C84.9257 57.348 90.2266 64.1675 94.4014 71.6716C98.9748 79.1495 102.331 87.3065 104.345 95.8376C105.224 99.8085 105.359 103.908 104.745 107.928C104.599 109.41 104.134 110.844 103.382 112.13C102.63 113.416 101.609 114.524 100.388 115.379C99.2164 116.028 97.8929 116.354 96.5535 116.323ZM68.6169 86.5788C72.8495 94.1212 78.2556 100.942 84.6324 106.785C91.1907 112.427 96.3931 113.641 98.6298 112.325C100.963 110.969 102.683 105.435 100.91 96.4791C98.9677 88.3342 95.7483 80.548 91.3715 73.4096C87.3876 66.2275 82.3278 59.6975 76.368 54.0464C69.2993 47.7709 63.5662 46.3682 61.2303 47.7213C60.5023 48.3129 59.9049 49.0491 59.4757 49.8833C59.0466 50.7175 58.7951 51.6316 58.737 52.5679C58.2734 56.0326 58.4244 59.5518 59.1832 62.964C61.0504 71.2899 64.2361 79.2641 68.6198 86.5847L68.6169 86.5788Z" fill="#00D8FF"/>
</svg>
