<svg width="24" height="24" viewBox="0 0 24 24" fill="none" xmlns="http://www.w3.org/2000/svg">
<path d="M13.0286 2.00074C13.7583 1.99794 14.488 2.00528 15.2176 2.02274L15.4116 2.02974C15.6356 2.03774 15.8566 2.04774 16.1236 2.05974C17.1876 2.10974 17.9136 2.27774 18.5506 2.52474C19.2106 2.77874 19.7666 3.12274 20.3226 3.67874C20.831 4.17835 21.2244 4.78269 21.4756 5.44974C21.7226 6.08674 21.8906 6.81374 21.9406 7.87774C21.9526 8.14374 21.9626 8.36574 21.9706 8.58974L21.9766 8.78374C21.9943 9.51293 22.002 10.2423 21.9996 10.9717L22.0006 11.7177V13.0277C22.003 13.7575 21.9954 14.4872 21.9776 15.2167L21.9716 15.4107C21.9636 15.6347 21.9536 15.8557 21.9416 16.1227C21.8916 17.1867 21.7216 17.9127 21.4756 18.5497C21.2252 19.2175 20.8317 19.8223 20.3226 20.3217C19.8225 20.8301 19.2179 21.2235 18.5506 21.4747C17.9136 21.7217 17.1876 21.8897 16.1236 21.9397C15.8566 21.9517 15.6356 21.9617 15.4116 21.9697L15.2176 21.9757C14.4881 21.9935 13.7583 22.0012 13.0286 21.9987L12.2826 21.9997H10.9736C10.2438 22.0022 9.5141 21.9945 8.78458 21.9767L8.59058 21.9707C8.35319 21.9621 8.11585 21.9521 7.87858 21.9407C6.81458 21.8907 6.08858 21.7207 5.45058 21.4747C4.78326 21.2241 4.17881 20.8306 3.67958 20.3217C3.17062 19.822 2.7768 19.2173 2.52558 18.5497C2.27858 17.9127 2.11058 17.1867 2.06058 16.1227C2.04944 15.8855 2.03944 15.6481 2.03058 15.4107L2.02558 15.2167C2.00714 14.4872 1.99881 13.7575 2.00058 13.0277V10.9717C1.99779 10.2423 2.00512 9.51294 2.02258 8.78374L2.02958 8.58974C2.03758 8.36574 2.04758 8.14374 2.05958 7.87774C2.10958 6.81274 2.27758 6.08774 2.52458 5.44974C2.77595 4.78236 3.17054 4.17819 3.68058 3.67974C4.17947 3.17049 4.78354 2.77631 5.45058 2.52474C6.08858 2.27774 6.81358 2.10974 7.87858 2.05974L8.59058 2.02974L8.78458 2.02474C9.51376 2.00632 10.2432 1.99798 10.9726 1.99974L13.0286 2.00074ZM12.0006 7.00074C11.3381 6.99137 10.6803 7.11377 10.0656 7.36081C9.45077 7.60785 8.89122 7.97462 8.41942 8.4398C7.94762 8.90497 7.57298 9.45928 7.31726 10.0705C7.06155 10.6817 6.92987 11.3377 6.92987 12.0002C6.92987 12.6628 7.06155 13.3188 7.31726 13.93C7.57298 14.5412 7.94762 15.0955 8.41942 15.5607C8.89122 16.0259 9.45077 16.3926 10.0656 16.6397C10.6803 16.8867 11.3381 17.0091 12.0006 16.9997C13.3267 16.9997 14.5984 16.473 15.5361 15.5353C16.4738 14.5976 17.0006 13.3258 17.0006 11.9997C17.0006 10.6737 16.4738 9.40189 15.5361 8.46421C14.5984 7.52653 13.3267 7.00074 12.0006 7.00074ZM12.0006 9.00074C12.3991 8.9934 12.7951 9.06554 13.1654 9.21295C13.5357 9.36036 13.8729 9.58008 14.1574 9.85929C14.4418 10.1385 14.6678 10.4716 14.822 10.8391C14.9763 11.2066 15.0558 11.6012 15.0558 11.9997C15.0559 12.3983 14.9766 12.7929 14.8224 13.1605C14.6683 13.528 14.4424 13.8612 14.1581 14.1405C13.8737 14.4198 13.5366 14.6396 13.1663 14.7871C12.796 14.9347 12.4001 15.007 12.0016 14.9997C11.2059 14.9997 10.4429 14.6837 9.88026 14.1211C9.31765 13.5585 9.00158 12.7954 9.00158 11.9997C9.00158 11.2041 9.31765 10.441 9.88026 9.87842C10.4429 9.31581 11.2059 8.99974 12.0016 8.99974L12.0006 9.00074ZM17.2506 5.50074C16.928 5.51365 16.6229 5.65089 16.3992 5.88371C16.1755 6.11653 16.0506 6.42688 16.0506 6.74974C16.0506 7.07261 16.1755 7.38295 16.3992 7.61577C16.6229 7.84859 16.928 7.98583 17.2506 7.99874C17.5821 7.99874 17.9 7.86705 18.1345 7.63263C18.3689 7.39821 18.5006 7.08026 18.5006 6.74874C18.5006 6.41722 18.3689 6.09928 18.1345 5.86486C17.9 5.63044 17.5821 5.49874 17.2506 5.49874V5.50074Z" fill="#A6A6A6"/>
</svg>
