<svg width="160" height="160" viewBox="0 0 160 160" fill="none" xmlns="http://www.w3.org/2000/svg">
<rect width="160" height="160" rx="16" fill="white"/>
<path d="M124.642 58.5563C124.641 56.6728 124.452 54.7941 124.076 52.9484C123.7 51.0589 123.061 49.2315 122.178 47.5194C121.255 45.8612 120.108 44.338 118.769 42.9929C117.388 41.6417 115.784 40.5393 114.028 39.7342C112.294 38.8602 110.44 38.2494 108.527 37.9221C106.629 37.5569 104.545 37.5569 102.647 37.3778H55.8279C54.3674 37.4016 52.9102 37.5236 51.4661 37.7431C50.0331 37.9118 48.6303 38.2781 47.2977 38.8317C46.9181 39.0108 46.3523 39.197 45.9727 39.3761C44.712 40.0518 43.5136 40.838 42.3916 41.7252C42.0121 42.0905 41.6325 42.2696 41.2529 42.6277C39.857 43.9224 38.7026 45.4551 37.8437 47.1542C36.9057 48.8422 36.2637 50.6784 35.9457 52.5831C35.6634 54.4418 35.4746 56.3135 35.3799 58.1911V101.443C35.3805 103.327 35.57 105.206 35.9457 107.051C36.3216 108.941 36.9604 110.768 37.8437 112.48C38.7667 114.139 39.9139 115.662 41.2529 117.007C42.6338 118.358 44.2379 119.461 45.9942 120.266C47.7275 121.14 49.5814 121.75 51.4948 122.078C53.3927 122.443 55.4769 122.443 57.3749 122.622H102.654C104.627 122.621 106.595 122.438 108.534 122.078C110.448 121.75 112.302 121.14 114.035 120.266C115.754 119.396 117.348 118.3 118.776 117.007C120.172 115.712 121.326 114.179 122.185 112.48C123.123 110.792 123.765 108.956 124.083 107.051C124.366 105.193 124.554 103.321 124.649 101.443V58.5563H124.642Z" fill="#F05138"/>
<path d="M95.0412 103.277C87.084 107.667 76.1474 108.119 65.1391 103.614C56.5561 100.131 49.2176 94.1499 44.0752 86.4458C46.465 88.2752 49.0759 89.796 51.8461 90.9723C63.2125 96.0575 74.5717 95.7065 82.5719 90.9723C71.184 82.6212 61.5151 71.7634 54.3099 62.8966C52.8881 61.3982 51.6189 59.7619 50.5211 58.012C59.2303 65.6111 73.082 75.2012 78.0096 77.9157C70.974 70.7069 64.5086 62.9628 58.6717 54.7532C68.3744 64.1821 79.051 72.5539 90.5219 79.7277C91.0304 79.9999 91.4243 80.2291 91.7394 80.4439C92.0757 79.6231 92.365 78.7837 92.6061 77.93C95.2632 68.698 92.2265 58.2054 85.5943 49.5177C100.95 58.3773 110.082 75.0222 106.257 88.9598C106.157 89.3394 106.049 89.676 105.935 90.0699L106.071 90.2275C113.656 99.2733 111.571 108.849 110.619 107.059C106.501 99.3377 98.8873 101.723 95.0412 103.277Z" fill="#FEFEFE"/>
</svg>
